<svg width="340" height="153" viewBox="0 0 340 153" fill="none" xmlns="http://www.w3.org/2000/svg">
<path d="M168.939 152.061C169.525 152.646 170.475 152.646 171.061 152.061L180.607 142.515C181.192 141.929 181.192 140.979 180.607 140.393C180.021 139.808 179.071 139.808 178.485 140.393L170 148.879L161.515 140.393C160.929 139.808 159.979 139.808 159.393 140.393C158.808 140.979 158.808 141.929 159.393 142.515L168.939 152.061ZM168.5 2L168.5 151L171.5 151L171.5 2L168.5 2Z" fill="white"/>
<path d="M149.999 15L148.499 15V15L149.999 15ZM0.93834 69.9393C0.352553 70.5251 0.352554 71.4749 0.93834 72.0607L10.4843 81.6066C11.0701 82.1924 12.0198 82.1924 12.6056 81.6066C13.1914 81.0208 13.1914 80.0711 12.6056 79.4853L4.12032 71L12.6056 62.5147C13.1914 61.9289 13.1914 60.9792 12.6056 60.3934C12.0198 59.8076 11.0701 59.8076 10.4843 60.3934L0.93834 69.9393ZM148.499 15C148.499 35.939 145.236 49.3986 137.056 57.697C128.881 65.9902 115.427 69.5 93.999 69.5L93.999 72.5C115.571 72.5 130.117 69.0098 139.192 59.803C148.262 50.6014 151.499 36.061 151.499 15L148.499 15ZM93.999 69.5L1.999 69.5L1.999 72.5L93.999 72.5L93.999 69.5ZM151.499 15L151.499 1.5L148.499 1.5L148.499 15L151.499 15Z" fill="white"/>
<path d="M190.001 15L191.501 15V15L190.001 15ZM339.062 69.9393C339.647 70.5251 339.647 71.4749 339.062 72.0607L329.516 81.6066C328.93 82.1924 327.98 82.1924 327.394 81.6066C326.809 81.0208 326.809 80.0711 327.394 79.4853L335.88 71L327.394 62.5147C326.809 61.9289 326.809 60.9792 327.394 60.3934C327.98 59.8076 328.93 59.8076 329.516 60.3934L339.062 69.9393ZM191.501 15C191.501 35.939 194.764 49.3986 202.944 57.697C211.119 65.9902 224.573 69.5 246.001 69.5L246.001 72.5C224.429 72.5 209.883 69.0098 200.808 59.803C191.738 50.6014 188.501 36.061 188.501 15L191.501 15ZM246.001 69.5L338.001 69.5L338.001 72.5L246.001 72.5L246.001 69.5ZM188.501 15L188.501 0.500006L191.501 0.499994L191.501 15L188.501 15Z" fill="white"/>
</svg>
