<svg width="95" height="124" viewBox="0 0 95 124" fill="none" xmlns="http://www.w3.org/2000/svg">
<path d="M6 56L7.5 56L6 56ZM94.0607 110.939C94.6464 111.525 94.6464 112.475 94.0607 113.061L84.5147 122.607C83.9289 123.192 82.9792 123.192 82.3934 122.607C81.8076 122.021 81.8076 121.071 82.3934 120.485L90.8787 112L82.3934 103.515C81.8076 102.929 81.8076 101.979 82.3934 101.393C82.9792 100.808 83.9289 100.808 84.5147 101.393L94.0607 110.939ZM7.5 56C7.5 76.939 10.7634 90.3986 18.9433 98.697C27.118 106.99 40.572 110.5 62 110.5L62 113.5C40.428 113.5 25.882 110.01 16.8067 100.803C7.7366 91.6014 4.5 77.061 4.5 56L7.5 56ZM62 110.5L93 110.5L93 113.5L62 113.5L62 110.5ZM4.5 56L4.5 10.5L7.5 10.5L7.5 56L4.5 56Z" fill="white"/>
<circle cx="6" cy="6" r="4.5" stroke="white" stroke-width="3"/>
</svg>
