<svg width="340" height="162" viewBox="0 0 340 162" fill="none" xmlns="http://www.w3.org/2000/svg">
<path d="M168.939 161.061C169.525 161.646 170.475 161.646 171.061 161.061L180.607 151.515C181.192 150.929 181.192 149.979 180.607 149.393C180.021 148.808 179.071 148.808 178.485 149.393L170 157.879L161.515 149.393C160.929 148.808 159.979 148.808 159.393 149.393C158.808 149.979 158.808 150.929 159.393 151.515L168.939 161.061ZM168.5 11L168.5 160L171.5 160L171.5 11L168.5 11Z" fill="white"/>
<circle cx="170" cy="6" r="4.5" stroke="white" stroke-width="3"/>
<path d="M149.999 24L148.499 24L148.499 24L149.999 24ZM0.938377 78.9393C0.352577 79.5251 0.352577 80.4749 0.938377 81.0607L10.4843 90.6066C11.0701 91.1924 12.0198 91.1924 12.6056 90.6066C13.1914 90.0208 13.1914 89.0711 12.6056 88.4853L4.12035 80L12.6056 71.5147C13.1914 70.9289 13.1914 69.9792 12.6056 69.3934C12.0198 68.8076 11.0701 68.8076 10.4843 69.3934L0.938377 78.9393ZM148.499 24C148.499 44.939 145.236 58.3986 137.056 66.697C128.881 74.9902 115.427 78.5 93.999 78.5L93.999 81.5C115.571 81.5 130.117 78.0098 139.192 68.803C148.262 59.6014 151.499 45.061 151.499 24L148.499 24ZM93.999 78.5L1.99903 78.5L1.99903 81.5L93.999 81.5L93.999 78.5ZM151.499 24L151.499 10.5L148.499 10.5L148.499 24L151.499 24Z" fill="white"/>
<circle cx="150" cy="6" r="4.5" stroke="white" stroke-width="3"/>
<path d="M190.001 24L191.501 24V24L190.001 24ZM339.062 78.9393C339.647 79.5251 339.647 80.4749 339.062 81.0607L329.516 90.6066C328.93 91.1924 327.98 91.1924 327.394 90.6066C326.809 90.0208 326.809 89.0711 327.394 88.4853L335.88 80L327.394 71.5147C326.809 70.9289 326.809 69.9792 327.394 69.3934C327.98 68.8076 328.93 68.8076 329.516 69.3934L339.062 78.9393ZM191.501 24C191.501 44.939 194.764 58.3986 202.944 66.697C211.119 74.9902 224.573 78.5 246.001 78.5L246.001 81.5C224.429 81.5 209.883 78.0098 200.808 68.803C191.738 59.6014 188.501 45.061 188.501 24L191.501 24ZM246.001 78.5L338.001 78.5L338.001 81.5L246.001 81.5L246.001 78.5ZM188.501 24L188.501 9.50001L191.501 9.49999L191.501 24L188.501 24Z" fill="white"/>
<circle r="4.5" transform="matrix(-1 0 0 1 190 6)" stroke="white" stroke-width="3"/>
</svg>
