<svg width="91" height="114" viewBox="0 0 91 114" fill="none" xmlns="http://www.w3.org/2000/svg">
<path d="M89 46L87.5 46L89 46ZM0.939341 100.939C0.353557 101.525 0.353557 102.475 0.939342 103.061L10.4853 112.607C11.0711 113.192 12.0208 113.192 12.6066 112.607C13.1924 112.021 13.1924 111.071 12.6066 110.485L4.12133 102L12.6066 93.5147C13.1924 92.9289 13.1924 91.9792 12.6066 91.3934C12.0208 90.8076 11.0711 90.8076 10.4853 91.3934L0.939341 100.939ZM87.5 46C87.5 66.939 84.2366 80.3986 76.0567 88.697C67.882 96.9902 54.428 100.5 33 100.5L33 103.5C54.572 103.5 69.118 100.01 78.1933 90.803C87.2634 81.6014 90.5 67.061 90.5 46L87.5 46ZM33 100.5L2 100.5L2 103.5L33 103.5L33 100.5ZM90.5 46L90.5 0.5L87.5 0.5L87.5 46L90.5 46Z" fill="white"/>
</svg>
