<svg width="95" height="124" viewBox="0 0 95 124" fill="none" xmlns="http://www.w3.org/2000/svg">
<path d="M89 56L87.5 56L89 56ZM0.939341 110.939C0.353557 111.525 0.353557 112.475 0.939342 113.061L10.4853 122.607C11.0711 123.192 12.0208 123.192 12.6066 122.607C13.1924 122.021 13.1924 121.071 12.6066 120.485L4.12133 112L12.6066 103.515C13.1924 102.929 13.1924 101.979 12.6066 101.393C12.0208 100.808 11.0711 100.808 10.4853 101.393L0.939341 110.939ZM87.5 56C87.5 76.939 84.2366 90.3986 76.0567 98.697C67.882 106.99 54.428 110.5 33 110.5L33 113.5C54.572 113.5 69.118 110.01 78.1933 100.803C87.2634 91.6014 90.5 77.061 90.5 56L87.5 56ZM33 110.5L2 110.5L2 113.5L33 113.5L33 110.5ZM90.5 56L90.5 10.5L87.5 10.5L87.5 56L90.5 56Z" fill="white"/>
<circle r="4.5" transform="matrix(-1 0 0 1 89 6)" stroke="white" stroke-width="3"/>
</svg>
