<svg width="91" height="114" viewBox="0 0 91 114" fill="none" xmlns="http://www.w3.org/2000/svg">
<path d="M2 46L3.5 46L2 46ZM90.0607 100.939C90.6464 101.525 90.6464 102.475 90.0607 103.061L80.5147 112.607C79.9289 113.192 78.9792 113.192 78.3934 112.607C77.8076 112.021 77.8076 111.071 78.3934 110.485L86.8787 102L78.3934 93.5147C77.8076 92.9289 77.8076 91.9792 78.3934 91.3934C78.9792 90.8076 79.9289 90.8076 80.5147 91.3934L90.0607 100.939ZM3.5 46C3.5 66.939 6.7634 80.3986 14.9433 88.697C23.118 96.9902 36.572 100.5 58 100.5L58 103.5C36.428 103.5 21.882 100.01 12.8067 90.803C3.7366 81.6014 0.5 67.061 0.5 46L3.5 46ZM58 100.5L89 100.5L89 103.5L58 103.5L58 100.5ZM0.5 46L0.5 0.5L3.5 0.5L3.5 46L0.5 46Z" fill="white"/>
</svg>
