<svg width="17" height="19" viewBox="0 0 17 19" fill="none" xmlns="http://www.w3.org/2000/svg">
<path d="M4.75 5C4.75 4.58579 5.08579 4.25 5.5 4.25H12.5C12.9142 4.25 13.25 4.58579 13.25 5C13.25 5.41421 12.9142 5.75 12.5 5.75H5.5C5.08579 5.75 4.75 5.41421 4.75 5Z" fill="white"/>
<path d="M5.5 7.25C5.08579 7.25 4.75 7.58579 4.75 8C4.75 8.41421 5.08579 8.75 5.5 8.75H10.5C10.9142 8.75 11.25 8.41421 11.25 8C11.25 7.58579 10.9142 7.25 10.5 7.25H5.5Z" fill="white"/>
<path fill-rule="evenodd" clip-rule="evenodd" d="M5 0.25C2.37665 0.25 0.25 2.37665 0.25 5V15C0.25 17.0711 1.92893 18.75 4 18.75H15C15.9665 18.75 16.75 17.9665 16.75 17V2C16.75 1.0335 15.9665 0.25 15 0.25H5ZM15.25 11.25V2C15.25 1.86193 15.1381 1.75 15 1.75H5C3.20507 1.75 1.75 3.20507 1.75 5V11.9997C2.37675 11.529 3.1558 11.25 4 11.25H15.25ZM15.25 12.75H4C2.75736 12.75 1.75 13.7574 1.75 15C1.75 16.2426 2.75736 17.25 4 17.25H15C15.1381 17.25 15.25 17.1381 15.25 17V12.75Z" fill="white"/>
</svg>
