<svg width="30" height="24" viewBox="0 0 30 24" fill="none" xmlns="http://www.w3.org/2000/svg">
<path d="M9 20.1589L13.0795 16.0794C13.5188 15.64 14.2312 15.64 14.6705 16.0794C15.1098 16.5187 15.1098 17.231 14.6705 17.6704L8.6705 23.6704C8.23116 24.1097 7.51884 24.1097 7.0795 23.6704L1.0795 17.6704C0.640165 17.231 0.640165 16.5187 1.0795 16.0794C1.51884 15.64 2.23116 15.64 2.6705 16.0794L6.75 20.1589L6.75 5.62488C6.75 5.00356 7.25368 4.49988 7.875 4.49988C8.49632 4.49988 9 5.00356 9 5.62488L9 20.1589Z" fill="#8991A3"/>
<path d="M20.998 3.84087L16.9185 7.92037C16.4792 8.35971 15.7669 8.35971 15.3276 7.92037C14.8882 7.48103 14.8882 6.76872 15.3276 6.32938L21.3276 0.329385C21.7669 -0.109955 22.4792 -0.109955 22.9185 0.329385L28.9185 6.32938C29.3579 6.76872 29.3579 7.48104 28.9185 7.92037C28.4792 8.35971 27.7669 8.35971 27.3276 7.92037L23.248 3.84087L23.248 18.3749C23.248 18.9962 22.7444 19.4999 22.123 19.4999C21.5017 19.4999 20.998 18.9962 20.998 18.3749L20.998 3.84087Z" fill="#8991A3"/>
</svg>
