<svg width="48" height="48" viewBox="0 0 48 48" fill="none" xmlns="http://www.w3.org/2000/svg">
<path fill-rule="evenodd" clip-rule="evenodd" d="M24.0001 44.0001C35.0458 44.0001 44.0001 35.0458 44.0001 24.0001C44.0001 12.9543 35.0458 4 24.0001 4C12.9543 4 4 12.9543 4 24.0001C4 35.0458 12.9543 44.0001 24.0001 44.0001Z" stroke="white" stroke-width="3" stroke-linecap="round" stroke-linejoin="round"/>
<path d="M24.002 24H28.002C30.2111 24 32.002 25.7909 32.002 28V28C32.002 30.2092 30.2111 32 28.002 32H23.2511L18.002 31.9989" stroke="white" stroke-width="3" stroke-linecap="round" stroke-linejoin="round"/>
<path d="M30.001 15.999H20.001C17.7918 15.999 16.0009 17.7899 16.0009 19.999V19.999C16.0009 22.2082 17.7918 23.999 20.0009 23.999H24.001" stroke="white" stroke-width="3" stroke-linecap="round" stroke-linejoin="round"/>
<path d="M23.999 14V12" stroke="white" stroke-width="3" stroke-linecap="round" stroke-linejoin="round"/>
<path d="M23.999 35.999L24.001 31.9989" stroke="white" stroke-width="3" stroke-linecap="round" stroke-linejoin="round"/>
</svg>
