<svg width="29" height="32" viewBox="0 0 29 32" fill="none" xmlns="http://www.w3.org/2000/svg">
<path d="M11.598 6.84863C11.3342 6.87061 11.0777 6.91458 10.814 6.98052C9.01882 7.42015 7.86113 8.30673 7.12109 9.25193C8.91624 8.90755 10.7773 9.34718 12.0522 9.79413C12.0889 9.80879 12.1255 9.82344 12.1695 9.83809C11.9716 9.53036 11.7885 9.17865 11.6419 8.78299C11.4148 8.18949 11.4441 7.49342 11.598 6.84863Z" fill="#131313"/>
<path d="M7.01878 12.336C6.30073 12.2554 5.61931 12.1822 5.21631 12.1822C5.16502 12.1822 5.11373 12.1821 5.06977 12.1895C2.27814 12.38 0.145953 14.9225 0.00673764 18.227C-0.0958419 20.5863 0.995898 22.1177 1.71395 22.8724C1.60405 21.9565 1.70663 21.0406 2.02902 20.1394C2.88629 17.7508 4.54222 17.0547 6.46925 16.2487C7.26058 15.919 8.11785 15.5526 8.98245 15.0324L12.6533 12.1309C11.9133 12.2921 10.8655 12.4606 9.51 12.5192C8.9165 12.5485 7.94933 12.4386 7.01878 12.336Z" fill="#131313"/>
<path d="M15.6571 10.7831C15.6205 10.8637 15.723 10.937 15.789 10.871C16.1773 10.4754 16.9833 9.82324 18.0457 9.83057C19.1888 9.8379 20.6469 10.5779 21.0132 11.4499C21.3063 12.1679 20.5296 12.6588 20.5296 12.6588C20.3465 12.461 19.9435 12.1972 19.1961 12.1752C18.097 12.1386 17.3423 13.0618 17.4303 13.1204C17.9798 13.4648 18.6979 13.3915 19.1228 13.3769C19.5478 13.3622 20.2292 13.1937 20.4271 13.1204C20.7714 12.9886 21.2843 12.5489 21.5188 11.9408C21.702 11.4645 22.1343 9.8379 19.6724 9.42025C18.119 9.15648 16.2359 9.54481 15.6571 10.7831Z" fill="#131313"/>
<path d="M26.941 14.3444C26.9043 14.3004 26.8604 14.2491 26.8164 14.1978L26.7944 14.1758C26.5087 13.8534 26.2376 13.5677 26.1057 13.4358C26.1936 13.1281 26.3988 12.2488 26.179 11.5234C26.0104 10.9592 25.6807 10.3877 25.5049 10.102L25.4463 10.014C25.4169 9.97008 25.3876 9.92612 25.3657 9.88948C25.3437 9.86017 25.329 9.83819 25.3217 9.81621L25.307 9.76492C25.1239 9.25202 24.6769 8.13098 24.1054 7.706L28.4577 0.987042C28.6262 0.730594 28.3038 0.437509 28.062 0.620687L21.7021 5.49322C21.0646 4.59198 20.1561 3.89591 20.1048 3.85194C20.0462 3.80798 19.9582 3.80065 19.8923 3.83729C19.8264 3.87392 19.7897 3.95452 19.797 4.02779C19.797 4.03512 19.841 4.46009 19.5846 5.31737C20.1341 5.5152 20.603 5.75699 20.9987 6.02809L20.669 6.28454C20.0242 5.8669 19.2036 5.5152 18.1558 5.36133C16.8589 5.17082 15.8184 5.4346 15.0711 6.14533C15.5034 6.42376 16.0309 6.78279 16.3167 7.05389C16.3753 7.10518 16.4266 7.1638 16.4779 7.22241C16.2507 7.28836 16.0236 7.36163 15.7964 7.4349C15.7745 7.42025 15.7598 7.39827 15.7378 7.38361C15.5986 7.25905 15.4154 7.13449 15.2249 6.99527C14.8293 6.71684 14.3677 6.38712 14.0672 5.96948C13.906 5.74234 13.7888 5.49322 13.7522 5.20746C13.7302 5.03161 13.6789 4.91437 13.591 4.84843C13.547 4.81179 13.3858 4.70189 13.166 4.87041C13.0195 4.98765 12.8436 5.25875 12.6897 5.6251C12.3087 6.52634 12.0523 7.97711 12.5579 9.0029C12.6458 9.17143 12.7337 9.33262 12.829 9.48649C12.7997 9.55976 12.7777 9.64036 12.763 9.71363C12.7191 9.96275 12.6971 10.2851 12.6751 10.6442C11.2243 10.036 8.9749 9.36193 6.92331 9.86017C5.17213 10.2851 4.03643 11.1424 3.28906 12.0583C3.83127 11.8312 4.40278 11.692 5.01093 11.648C5.42125 11.6187 6.21258 11.7066 7.0552 11.8019C7.9198 11.8971 8.90896 12.007 9.46582 11.9777C10.8726 11.9191 11.9351 11.7359 12.6531 11.5674C12.6531 11.9631 12.6604 12.3807 12.6824 12.8057C12.7337 14.0366 12.8656 15.3189 13.0488 16.2128C13.3126 17.5243 14.2577 20.2573 15.3495 20.9461C15.7525 21.2025 16.3386 21.5469 17.0274 21.9279C16.8442 22.3969 16.6537 23.0343 16.6537 23.6498C16.6537 24.7635 17.0347 25.5988 17.4597 26.3608C17.7967 26.9617 18.1631 27.5112 18.3976 28.1193C18.5807 28.5956 18.1997 30.1489 17.9872 30.9696C17.8993 31.2993 17.848 31.5045 17.8627 31.4825C18.1338 31.1088 18.4122 30.6912 18.6907 30.2515C19.8117 28.4784 20.1121 26.8078 20.1194 26.7345L20.1341 26.6319L20.0535 26.5587C20.0388 26.544 18.7932 25.4083 18.7126 24.1187C18.6833 23.6132 18.7859 23.2761 19.0277 23.1076C19.0643 23.0856 19.101 23.0636 19.1449 23.0416C19.6945 23.3127 20.244 23.5765 20.7716 23.811C20.9767 24.0674 21.431 24.4997 21.6362 24.6902C21.8853 24.9247 22.1417 25.2618 22.5301 25.2618C22.9184 25.2618 23.6951 25.2618 24.0907 25.2618C24.4864 25.2618 25.0506 25.2618 25.3583 25.1079C25.6661 24.954 26.157 24.6976 26.1643 24.1847C26.1643 24.0748 26.1936 23.8989 26.2302 23.6864C26.5014 23.3274 26.5307 22.9098 26.582 22.2796C26.6186 21.862 26.7065 21.1439 26.8018 20.3819C26.9483 19.2315 27.1022 18.0372 27.0875 17.6049C27.0729 17.0041 27.0069 16.5572 26.9849 16.4179C27.1022 16.1249 27.4099 14.8792 26.941 14.3444ZM15.5766 20.609C14.6021 19.9936 13.7009 17.3412 13.4518 16.1249C13.1001 14.3737 12.9462 11.1058 13.166 9.76492C13.3638 8.54129 16.7563 7.23707 19.1523 7.15647C19.2915 7.14914 19.4307 7.14914 19.5626 7.14914C19.6358 7.14914 19.7091 7.14914 19.7824 7.14914C19.7751 7.50817 19.8776 8.29217 20.7935 9.01756C21.812 9.82354 23.021 9.38391 23.021 9.38391L23.9076 8.01374C24.2373 8.27019 24.5963 8.94429 24.8601 9.63303C24.7941 9.60373 24.7209 9.58174 24.6329 9.56709C24.0394 9.47184 22.3176 9.50115 22.8744 11.8605C22.9477 12.1536 23.2554 12.5492 24.1347 13.4944C24.3399 13.7142 24.5084 13.8828 24.6476 14.022C25.0579 14.4323 25.1898 14.5642 25.1971 14.8866C25.1971 14.9086 25.1825 15.0038 25.1678 15.1064C25.1092 15.0624 25.0286 15.0258 24.9187 15.0331C24.6549 15.0185 22.4495 15.4434 21.812 16.1395C21.6874 16.2787 21.4823 16.33 21.3211 16.2421C21.3138 16.2348 21.3064 16.2348 21.2991 16.2274C21.1965 16.1688 21.1306 16.0882 21.0939 15.971C20.9987 15.5973 21.3064 15.0038 21.431 14.7986C21.475 14.7254 21.453 14.6301 21.387 14.5862C21.3138 14.5422 21.2185 14.5642 21.1745 14.6301C21.1672 14.6448 21.1086 14.74 21.0353 14.8866C20.7935 15.3702 20.4345 15.7805 19.9876 16.0809C19.2695 16.5645 18.229 17.1946 17.3864 17.4144C16.0675 17.7588 15.562 16.8136 15.54 16.7696C15.5034 16.6964 15.4081 16.6671 15.3348 16.7037C15.2616 16.7403 15.2249 16.8356 15.2689 16.9089C15.2762 16.9162 15.7305 17.7954 16.8442 17.7954C16.8882 17.7954 16.9468 17.7881 17.0054 17.7808C17.3205 17.7441 17.6355 17.8174 17.9066 17.9786C18.1631 18.1325 18.4928 18.323 18.8225 18.4915C19.7458 18.9531 19.8996 18.9458 20.2513 18.8872C20.3319 18.8725 23.9002 18.7113 26.1203 18.2864L26.3841 18.301C26.56 18.3083 26.6992 18.4695 26.6772 18.6454V18.6527C26.6625 18.7553 26.6039 18.8432 26.516 18.8945C26.3182 19.0044 26.0397 19.151 25.7906 19.2535C25.6734 19.2975 25.5488 19.3415 25.4169 19.3708C25.0139 19.466 24.6036 19.488 24.6036 19.488C24.6036 19.488 24.208 19.5759 23.6145 19.6419C23.3654 19.6712 23.0869 19.6932 22.7865 19.7078C21.7607 19.7591 21.834 19.825 20.9694 19.7811C20.7569 19.7738 20.5517 19.7591 20.3612 19.7371C20.1781 19.7151 20.1268 19.9862 20.3099 20.0302C20.7569 20.1401 21.2844 20.2207 21.8706 20.2134C21.9439 20.2134 22.0098 20.2134 22.0831 20.2134C23.021 20.2061 23.8709 20.7629 24.2373 21.6275C24.3911 21.9939 24.5377 22.5068 24.6329 22.983C24.7648 23.5985 24.2446 24.1627 23.6218 24.1041C22.7059 24.0088 21.6728 23.7524 21.0866 23.4959C19.0424 22.624 16.6317 21.2831 15.5766 20.609ZM25.1532 10.2485L25.2411 10.3877C25.4169 10.6808 25.6734 11.1571 25.8199 11.626C26.0471 12.388 25.7174 13.4138 25.7174 13.4212L25.6807 13.5311L25.7613 13.6117C25.7613 13.619 26.1277 13.9927 26.516 14.425L26.5233 14.4396C26.5673 14.4909 26.6113 14.5349 26.6552 14.5862C26.9263 14.9012 26.7944 15.8318 26.6479 16.3373L26.6332 16.3813L26.6406 16.4253C26.6406 16.4253 26.6625 16.5352 26.6845 16.711C26.4867 16.733 26.3402 16.9089 26.3621 17.114L26.4208 17.6635L25.7906 17.6709L24.8015 16.5498C24.7282 16.4619 24.7282 16.33 24.8161 16.2567C25.3363 15.7878 25.4096 15.5607 25.4243 15.4727C25.4902 15.0771 25.5122 14.9305 25.5122 14.8792C25.5122 14.4323 25.2997 14.2198 24.8747 13.7948C24.7355 13.6556 24.567 13.4871 24.3692 13.2746C24.3252 13.2306 24.2886 13.1867 24.2446 13.1427C24.3985 13.1867 24.6036 13.2306 24.8674 13.2526C25.4829 13.3039 25.6661 13.15 25.6661 13.15C25.6661 13.15 25.776 12.9522 25.5855 12.6665C25.395 12.3807 25.1312 12.1755 24.6183 12.1609C24.2519 12.1462 23.9222 12.432 23.761 12.6005C23.6951 12.5272 23.5485 12.2561 23.4826 11.8019C23.3727 11.0911 23.6365 10.7614 23.827 10.6002C24.164 10.3145 24.6256 10.036 24.8821 10.0507C24.948 10.058 25.0213 10.0653 25.0799 10.08C25.0872 10.1386 25.1165 10.1899 25.1532 10.2485ZM26.2302 22.243C26.179 22.8438 26.1497 23.1809 25.9518 23.452C25.7833 23.6791 25.4169 23.5106 25.4682 23.2322C25.4975 23.0783 25.5195 22.9171 25.5268 22.7632C25.5488 21.9792 25.1678 21.2318 25.0359 20.7336V20.7263C24.97 20.4479 25.1239 20.1621 25.3876 20.0449C25.5049 19.9936 25.6368 19.9276 25.776 19.8544C26.113 19.6858 26.5014 19.9496 26.4501 20.3233V20.3306C26.3621 21.0926 26.2669 21.818 26.2302 22.243ZM20.4931 16.1249C20.625 16.0296 20.8155 16.0662 20.9034 16.2128C20.9621 16.3154 21.0427 16.4253 21.1526 16.5132C21.4823 16.7843 21.8706 16.7696 22.1197 16.7696C22.3615 16.7696 22.5154 16.7257 22.5594 16.711C22.7352 16.6744 22.8744 16.8576 22.7865 17.0188C22.596 17.3705 22.3396 17.8321 22.3102 17.8541C22.259 17.8907 20.6397 18.2277 20.4345 18.2497C20.2293 18.2717 19.5846 18.3376 19.101 18.0299C18.8958 17.9053 18.698 17.7588 18.5368 17.6416C18.4122 17.5536 18.4342 17.3631 18.5661 17.2972C19.2988 16.9308 20.0242 16.4546 20.4931 16.1249ZM24.2812 17.18L24.8894 17.8467C24.9993 17.9713 24.926 18.1691 24.7648 18.1911C24.3985 18.2351 24.0321 18.279 23.6731 18.3157C23.5046 18.3303 23.3873 18.1471 23.4753 18.0006C23.6145 17.7808 23.7903 17.4877 23.9515 17.2093C24.0175 17.092 24.186 17.0774 24.2812 17.18ZM21.3211 6.43109L27.4392 1.36805L21.8047 7.0026C21.6215 7.17845 21.3211 7.11983 21.2112 6.89269C21.1379 6.7315 21.1819 6.53367 21.3211 6.43109Z" fill="#131313"/>
<path d="M6.68226 16.7627C4.80652 17.5467 3.32644 18.1695 2.54977 20.331C1.44338 23.4083 3.23852 26.8154 7.12922 29.1308C5.8543 24.1484 7.38566 22.3093 8.74851 20.6827C9.21744 20.1185 9.6644 19.5836 9.98679 18.9461C10.932 17.0557 10.888 15.2459 10.8001 14.4033C9.40062 15.6196 7.96451 16.2278 6.68226 16.7627Z" fill="#131313"/>
</svg>
