<svg width="376" height="1441" viewBox="0 0 376 1441" fill="none" xmlns="http://www.w3.org/2000/svg">
<path opacity="0.2" fill-rule="evenodd" clip-rule="evenodd" d="M0 16.8834V0.000334306C95.7799 0.0528117 174.979 71.0009 187.963 163.212C182.258 163.262 176.608 163.543 171.022 164.047C158.532 80.7872 86.7279 16.9355 0 16.8834ZM0 50.6495V33.7665C78.149 33.8185 142.869 91.2728 154.277 166.247C148.684 167.216 143.167 168.41 137.737 169.819C127.993 102.46 70.0462 50.7019 0 50.6495ZM0 84.4157V67.5326C62.4293 67.5857 113.919 114.376 121.37 174.802C115.823 176.747 110.385 178.922 105.066 181.315C100.683 127.105 55.3262 84.4703 0 84.4157ZM0 118.182V101.299C48.8145 101.356 88.3855 140.874 88.5294 189.668C82.4282 193.102 76.5189 196.837 70.8214 200.852C71.3649 197.292 71.6467 193.646 71.6467 189.935C71.6467 150.342 39.5792 118.239 0 118.182ZM0 244.805C30.255 244.747 54.7637 220.203 54.7636 189.935C54.7636 159.666 30.255 135.122 0 135.065V151.948C20.9307 152.005 37.8806 168.991 37.8806 189.935C37.8806 210.879 20.9307 227.864 0 227.922V244.805ZM0 278.571V261.688C4.98612 261.681 9.85303 261.165 14.5516 260.189C10.8485 266.087 7.43468 272.184 4.3302 278.462C2.8955 278.533 1.45184 278.569 0 278.571ZM0 377.056V360.172C95.7799 360.225 174.979 431.173 187.963 523.384C182.258 523.434 176.608 523.715 171.022 524.219C158.532 440.959 86.7279 377.108 0 377.056ZM0 410.822V393.939C78.149 393.991 142.869 451.445 154.277 526.419C148.684 527.388 143.167 528.582 137.737 529.991C127.993 462.632 70.0462 410.874 0 410.822ZM0 444.588V427.705C62.4293 427.758 113.919 474.548 121.37 534.974C115.823 536.919 110.385 539.094 105.066 541.487C100.683 487.277 55.3262 444.642 0 444.588ZM0 478.354V461.471C48.8145 461.528 88.3855 501.046 88.5294 549.84C82.4282 553.274 76.5189 557.009 70.8214 561.024C71.3649 557.465 71.6467 553.819 71.6467 550.107C71.6467 510.514 39.5792 478.411 0 478.354ZM0 604.977C30.255 604.919 54.7637 580.375 54.7636 550.107C54.7636 519.839 30.255 495.294 0 495.237V512.12C20.9307 512.178 37.8806 529.163 37.8806 550.107C37.8806 571.051 20.9307 588.036 0 588.094V604.977ZM0 638.743V621.86C4.98612 621.853 9.85303 621.337 14.5516 620.362C10.8485 626.259 7.43468 632.356 4.3302 638.634C2.8955 638.705 1.45184 638.741 0 638.743ZM0 737.228V720.345C95.7799 720.397 174.979 791.345 187.963 883.556C182.258 883.606 176.608 883.888 171.022 884.391C158.532 801.131 86.7279 737.28 0 737.228ZM0 770.994V754.111C78.149 754.163 142.869 811.617 154.277 886.591C148.684 887.561 143.167 888.754 137.737 890.163C127.993 822.804 70.0462 771.046 0 770.994ZM0 804.76V787.877C62.4293 787.93 113.919 834.72 121.37 895.147C115.823 897.092 110.385 899.266 105.066 901.659C100.683 847.449 55.3262 804.815 0 804.76ZM0 838.526V821.643C48.8145 821.7 88.3855 861.218 88.5294 910.012C82.4282 913.446 76.5189 917.181 70.8214 921.196C71.3649 917.637 71.6467 913.991 71.6467 910.279C71.6467 870.686 39.5792 838.583 0 838.526ZM0 965.149C30.255 965.092 54.7637 940.547 54.7636 910.279C54.7636 880.011 30.255 855.467 0 855.409V872.292C20.9307 872.35 37.8806 889.335 37.8806 910.279C37.8806 931.223 20.9307 948.209 0 948.266V965.149ZM0 998.915V982.032C4.98612 982.025 9.85303 981.509 14.5516 980.534C10.8485 986.431 7.43468 992.528 4.3302 998.806C2.8955 998.877 1.45184 998.913 0 998.915ZM0 1097.4V1080.52C95.7799 1080.57 174.979 1151.52 187.963 1243.73C182.258 1243.78 176.608 1244.06 171.022 1244.56C158.532 1161.3 86.7279 1097.45 0 1097.4ZM0 1131.17V1114.28C78.149 1114.33 142.869 1171.79 154.277 1246.76C148.684 1247.73 143.167 1248.93 137.737 1250.34C127.993 1182.98 70.0462 1131.22 0 1131.17ZM0 1164.93V1148.05C62.4293 1148.1 113.919 1194.89 121.37 1255.32C115.823 1257.26 110.385 1259.44 105.066 1261.83C100.683 1207.62 55.3262 1164.99 0 1164.93ZM0 1198.7V1181.82C48.8145 1181.87 88.3855 1221.39 88.5294 1270.18C82.4282 1273.62 76.5189 1277.35 70.8214 1281.37C71.3649 1277.81 71.6467 1274.16 71.6467 1270.45C71.6467 1230.86 39.5792 1198.76 0 1198.7ZM0 1325.32C30.255 1325.26 54.7637 1300.72 54.7636 1270.45C54.7636 1240.18 30.255 1215.64 0 1215.58V1232.46C20.9307 1232.52 37.8806 1249.51 37.8806 1270.45C37.8806 1291.4 20.9307 1308.38 0 1308.44V1325.32ZM0 1359.09V1342.2C4.98612 1342.2 9.85303 1341.68 14.5516 1340.71C10.8485 1346.6 7.43468 1352.7 4.3302 1358.98C2.8955 1359.05 1.45184 1359.09 0 1359.09ZM83.0039 1440.69H80.1114C75.6834 1438.77 71.1753 1437.01 66.5935 1435.4C74.0481 1374.94 125.592 1328.14 188.07 1328.14C250.547 1328.14 302.091 1374.94 309.546 1435.4C304.964 1437.01 300.456 1438.77 296.028 1440.69H293.135C288.168 1387.03 243.025 1345.02 188.07 1345.02C133.114 1345.02 87.9706 1387.03 83.0039 1440.69ZM116.987 1440.69H99.9744C104.874 1396.37 142.446 1361.9 188.07 1361.9C233.693 1361.9 271.265 1396.37 276.165 1440.69H259.152C254.352 1405.72 224.356 1378.78 188.07 1378.78C151.783 1378.78 121.787 1405.72 116.987 1440.69ZM242.058 1440.69C237.418 1415.08 215.011 1395.67 188.07 1395.67C161.128 1395.67 138.721 1415.08 134.081 1440.69H151.372C155.71 1424.48 170.496 1412.55 188.07 1412.55C205.643 1412.55 220.429 1424.48 224.767 1440.69H242.058ZM206.739 1440.69C203.201 1433.99 196.168 1429.43 188.07 1429.43C179.971 1429.43 172.938 1433.99 169.4 1440.69H206.739ZM376 1422.85V1423.82C370.342 1423.87 364.738 1424.15 359.198 1424.65C346.703 1341.36 274.845 1277.49 188.07 1277.49C101.294 1277.49 29.436 1341.36 16.9415 1424.65C11.3555 1424.15 5.70544 1423.86 0.000249624 1423.81C12.9894 1331.57 92.2419 1260.6 188.07 1260.6C283.562 1260.6 362.595 1331.07 376 1422.85ZM376 1342.2V1359.09C374.559 1359.08 373.126 1359.05 371.703 1358.98C368.598 1352.7 365.184 1346.6 361.481 1340.71C366.169 1341.68 371.025 1342.19 376 1342.2ZM376 1215.58C345.76 1215.66 321.269 1240.19 321.269 1270.45C321.269 1300.71 345.76 1325.25 376 1325.32V1308.44C355.084 1308.36 338.152 1291.38 338.152 1270.45C338.152 1249.52 355.084 1232.54 376 1232.46V1215.58ZM376 1181.82V1198.7C336.436 1198.77 304.386 1230.87 304.386 1270.45C304.386 1274.16 304.668 1277.81 305.211 1281.37C299.514 1277.35 293.604 1273.62 287.503 1270.18C287.647 1221.4 327.201 1181.89 376 1181.82ZM376 1148.05V1164.93C320.689 1165 275.349 1207.63 270.967 1261.83C265.648 1259.44 260.209 1257.26 254.663 1255.32C262.112 1194.9 313.585 1148.12 376 1148.05ZM376 1114.28V1131.17C305.968 1131.23 248.038 1182.99 238.295 1250.34C232.866 1248.93 227.349 1247.73 221.755 1246.76C233.162 1171.8 297.866 1114.35 376 1114.28ZM376 1080.52V1097.4C289.287 1097.47 217.499 1161.31 205.011 1244.56C199.425 1244.06 193.775 1243.78 188.07 1243.73C201.052 1151.53 280.235 1080.59 376 1080.52ZM376 1062.67V1063.64C370.342 1063.7 364.738 1063.98 359.198 1064.48C346.703 981.183 274.845 917.314 188.07 917.314C101.294 917.314 29.436 981.183 16.9415 1064.48C11.3555 1063.97 5.70544 1063.69 0.000249624 1063.64C12.9894 971.397 92.2419 900.431 188.07 900.431C283.562 900.431 362.595 970.901 376 1062.67ZM376 982.032V998.915C374.559 998.913 373.126 998.876 371.703 998.806C368.598 992.528 365.184 986.431 361.481 980.534C366.169 981.507 371.025 982.023 376 982.032ZM376 855.409C345.76 855.484 321.269 880.021 321.269 910.279C321.269 940.537 345.76 965.074 376 965.149V948.266C355.084 948.191 338.152 931.212 338.152 910.279C338.152 889.346 355.084 872.367 376 872.292V855.409ZM376 821.643V838.526C336.436 838.601 304.386 870.697 304.386 910.279C304.386 913.991 304.668 917.637 305.211 921.196C299.514 917.181 293.604 913.446 287.503 910.012C287.647 861.229 327.201 821.718 376 821.643ZM376 787.877V804.76C320.689 804.831 275.349 847.46 270.967 901.659C265.648 899.266 260.209 897.091 254.663 895.147C262.112 834.73 313.585 787.946 376 787.877ZM376 754.111V770.994C305.968 771.062 248.038 822.814 238.295 890.163C232.866 888.754 227.349 887.56 221.755 886.591C233.162 811.628 297.866 754.179 376 754.111ZM376 720.345V737.228C289.287 737.296 217.499 801.142 205.011 884.391C199.425 883.888 193.775 883.606 188.07 883.556C201.052 791.356 280.235 720.413 376 720.345ZM376 702.502V703.471C370.342 703.525 364.738 703.806 359.198 704.305C346.703 621.011 274.845 557.142 188.07 557.142C101.294 557.142 29.436 621.011 16.9415 704.305C11.3555 703.802 5.70544 703.52 0.000249624 703.47C12.9894 611.225 92.2419 540.258 188.07 540.258C283.562 540.258 362.595 610.729 376 702.502ZM376 621.86V638.743C374.559 638.741 373.126 638.704 371.703 638.634C368.598 632.356 365.184 626.259 361.481 620.362C366.169 621.335 371.025 621.85 376 621.86ZM376 495.237C345.76 495.312 321.269 519.849 321.269 550.107C321.269 580.365 345.76 604.902 376 604.977V588.094C355.084 588.019 338.152 571.04 338.152 550.107C338.152 529.174 355.084 512.195 376 512.12V495.237ZM376 461.471V478.354C336.436 478.429 304.386 510.525 304.386 550.107C304.386 553.819 304.668 557.464 305.211 561.024C299.514 557.009 293.604 553.274 287.503 549.84C287.647 501.057 327.201 461.546 376 461.471ZM376 427.705V444.588C320.689 444.659 275.349 487.287 270.967 541.487C265.648 539.094 260.209 536.919 254.663 534.974C262.112 474.558 313.585 427.774 376 427.705ZM376 393.939V410.822C305.968 410.89 248.038 462.642 238.295 529.991C232.866 528.582 227.349 527.388 221.755 526.419C233.162 451.455 297.866 394.007 376 393.939ZM376 360.172V377.056C289.287 377.124 217.499 440.97 205.011 524.219C199.425 523.715 193.775 523.434 188.07 523.384C201.052 431.183 280.235 360.241 376 360.172ZM376 342.33V343.299C370.342 343.353 364.738 343.633 359.198 344.133C346.703 260.839 274.845 196.969 188.07 196.969C101.294 196.969 29.436 260.839 16.9415 344.133C11.3555 343.629 5.70544 343.348 0.000249624 343.298C12.9894 251.053 92.2419 180.086 188.07 180.086C283.562 180.086 362.595 250.557 376 342.33ZM376 261.688V278.571C374.559 278.569 373.126 278.532 371.703 278.462C368.598 272.184 365.184 266.087 361.481 260.189C366.169 261.163 371.025 261.678 376 261.688ZM376 135.065C345.76 135.14 321.269 159.677 321.269 189.935C321.269 220.192 345.76 244.73 376 244.805V227.921C355.084 227.847 338.152 210.868 338.152 189.935C338.152 169.002 355.084 152.023 376 151.948V135.065ZM376 101.299V118.182C336.436 118.257 304.386 150.353 304.386 189.935C304.386 193.646 304.668 197.292 305.211 200.852C299.514 196.837 293.604 193.102 287.503 189.668C287.647 140.884 327.201 101.374 376 101.299ZM376 67.5327V84.4157C320.689 84.487 275.349 127.115 270.967 181.315C265.648 178.922 260.209 176.747 254.663 174.802C262.112 114.386 313.585 67.602 376 67.5327ZM376 33.7665V50.6496C305.968 50.7179 248.038 102.47 238.295 169.819C232.866 168.41 227.349 167.216 221.755 166.247C233.162 91.2832 297.866 33.8345 376 33.7665ZM376 0.000354899V16.8834C289.287 16.9516 217.499 80.7976 205.011 164.047C199.425 163.543 193.775 163.262 188.07 163.212C201.052 71.0114 280.235 0.0689064 376 0.000354899ZM296.028 0H293.135C293.173 0.408902 293.208 0.81848 293.242 1.22872C294.167 0.812524 295.096 0.402931 296.028 0ZM83.0039 0C82.9661 0.408881 82.9305 0.818438 82.8974 1.22866C81.9723 0.812482 81.0436 0.40291 80.1113 0H83.0039ZM99.9744 0H116.987C116.545 3.21974 116.316 6.50758 116.316 9.84876C116.316 13.5604 116.598 17.2063 117.142 20.766C111.444 16.7507 105.535 13.0158 99.4338 9.58164C99.4434 6.34398 99.6265 3.14716 99.9744 0ZM259.152 0H276.165C276.513 3.14719 276.696 6.34403 276.705 9.58172C270.604 13.0159 264.695 16.7508 258.997 20.7661C259.541 17.2063 259.823 13.5604 259.823 9.84874C259.823 6.50757 259.594 3.21974 259.152 0ZM134.081 0C133.502 3.19515 133.2 6.48664 133.2 9.84876C133.2 40.1526 157.766 64.7187 188.07 64.7187C218.373 64.7187 242.94 40.1526 242.939 9.84874C242.939 6.48663 242.637 3.19514 242.058 0H224.767C225.608 3.14101 226.056 6.44252 226.056 9.84874C226.056 30.8283 209.049 47.8356 188.07 47.8357C167.09 47.8357 150.083 30.8283 150.083 9.84876C150.083 6.44253 150.531 3.14102 151.372 0H134.081ZM169.4 0C167.846 2.94014 166.966 6.29168 166.966 9.84876C166.966 21.5041 176.414 30.9526 188.07 30.9526C199.725 30.9526 209.173 21.5041 209.173 9.84874C209.173 6.29167 208.293 2.94014 206.739 0H169.4ZM376 168.831C364.409 168.906 355.035 178.326 355.035 189.935C355.035 201.544 364.409 210.963 376 211.038V168.831ZM376 529.004C364.409 529.078 355.035 538.498 355.035 550.107C355.035 561.716 364.409 571.136 376 571.21V529.004ZM376 889.176C364.409 889.25 355.035 898.67 355.035 910.279C355.035 921.888 364.409 931.308 376 931.382V889.176ZM376 1249.35C364.409 1249.42 355.035 1258.84 355.035 1270.45C355.035 1282.06 364.409 1291.48 376 1291.55V1249.35ZM0 1291.55C11.6064 1291.5 20.9975 1282.07 20.9975 1270.45C20.9975 1258.83 11.6064 1249.4 0 1249.35V1291.55ZM0 931.383C11.6064 931.325 20.9975 921.899 20.9975 910.279C20.9975 898.659 11.6064 889.233 0 889.175V931.383ZM0 571.211C11.6064 571.153 20.9975 561.727 20.9975 550.107C20.9975 538.487 11.6064 529.061 0 529.003V571.211ZM0 211.038C11.6064 210.981 20.9975 201.555 20.9975 189.935C20.9975 178.315 11.6064 168.889 0 168.831V211.038ZM202.727 80.1034C197.995 81.0856 193.093 81.6018 188.07 81.6018C183.046 81.6018 178.144 81.0856 173.412 80.1034C177.115 86.0007 180.529 92.0981 183.633 98.3758C185.103 98.4482 186.582 98.4849 188.07 98.4849C189.557 98.4849 191.036 98.4482 192.506 98.3758C195.611 92.0981 199.024 86.0007 202.727 80.1034ZM33.686 1066.68C39.2796 1067.65 44.7962 1068.84 50.2261 1070.25C59.9749 1002.86 117.976 951.08 188.07 951.08C258.163 951.08 316.164 1002.86 325.913 1070.25C331.343 1068.84 336.859 1067.65 342.453 1066.68C331.039 991.669 266.266 934.197 188.07 934.197C109.873 934.197 45.0996 991.669 33.686 1066.68ZM188.07 967.963C250.547 967.963 302.091 1014.77 309.546 1075.23C303.999 1077.18 298.561 1079.35 293.242 1081.75C288.856 1027.5 243.444 984.846 188.07 984.846C132.695 984.846 87.2831 1027.5 82.8974 1081.75C77.5784 1079.35 72.1399 1077.18 66.5935 1075.23C74.0481 1014.77 125.592 967.963 188.07 967.963ZM276.705 1090.1C276.561 1041.27 236.933 1001.73 188.07 1001.73C139.206 1001.73 99.5779 1041.27 99.4338 1090.1C105.535 1093.53 111.444 1097.27 117.142 1101.28C116.598 1097.72 116.316 1094.08 116.316 1090.37C116.316 1050.74 148.441 1018.61 188.07 1018.61C227.698 1018.61 259.823 1050.74 259.823 1090.37C259.823 1094.08 259.541 1097.72 258.997 1101.28C264.695 1097.27 270.604 1093.53 276.705 1090.1ZM188.07 1162.12C193.093 1162.12 197.995 1161.6 202.727 1160.62C199.024 1166.52 195.611 1172.61 192.506 1178.89C191.036 1178.96 189.557 1179 188.07 1179C186.582 1179 185.103 1178.96 183.633 1178.89C180.529 1172.61 177.115 1166.52 173.412 1160.62C178.144 1161.6 183.046 1162.12 188.07 1162.12ZM209.173 1090.37C209.173 1102.02 199.725 1111.47 188.07 1111.47C176.414 1111.47 166.966 1102.02 166.966 1090.37C166.966 1078.71 176.414 1069.26 188.07 1069.26C199.725 1069.26 209.173 1078.71 209.173 1090.37ZM242.939 1090.37C242.94 1120.67 218.373 1145.24 188.07 1145.24C157.766 1145.24 133.2 1120.67 133.2 1090.37C133.2 1060.06 157.766 1035.5 188.07 1035.5C218.373 1035.5 242.939 1060.06 242.939 1090.37ZM226.056 1090.37C226.056 1111.34 209.049 1128.35 188.07 1128.35C167.09 1128.35 150.083 1111.34 150.083 1090.37C150.083 1069.39 167.09 1052.38 188.07 1052.38C209.049 1052.38 226.056 1069.39 226.056 1090.37ZM33.686 1426.85C39.2796 1427.82 44.7962 1429.01 50.2261 1430.42C59.9749 1363.03 117.976 1311.25 188.07 1311.25C258.163 1311.25 316.164 1363.03 325.913 1430.42C331.343 1429.01 336.859 1427.82 342.453 1426.85C331.039 1351.84 266.266 1294.37 188.07 1294.37C109.873 1294.37 45.0996 1351.84 33.686 1426.85ZM33.686 346.333C39.2796 347.302 44.7962 348.496 50.2261 349.905C59.9749 282.512 117.976 230.736 188.07 230.736C258.163 230.736 316.164 282.512 325.913 349.905C331.343 348.496 336.859 347.302 342.453 346.333C331.039 271.325 266.266 213.853 188.07 213.853C109.873 213.853 45.0996 271.325 33.686 346.333ZM188.07 247.619C250.547 247.619 302.091 294.428 309.546 354.888C303.999 356.833 298.561 359.008 293.242 361.401C288.856 307.156 243.444 264.502 188.07 264.502C132.695 264.502 87.2831 307.156 82.8974 361.401C77.5784 359.008 72.1399 356.833 66.5935 354.888C74.0481 294.428 125.592 247.619 188.07 247.619ZM276.705 369.754C276.561 320.924 236.933 281.385 188.07 281.385C139.206 281.385 99.5779 320.924 99.4338 369.754C105.535 373.188 111.444 376.923 117.142 380.938C116.598 377.378 116.316 373.733 116.316 370.021C116.316 330.393 148.441 298.268 188.07 298.268C227.698 298.268 259.823 330.393 259.823 370.021C259.823 373.733 259.541 377.378 258.997 380.938C264.695 376.923 270.604 373.188 276.705 369.754ZM188.07 441.774C193.093 441.774 197.995 441.258 202.727 440.276C199.024 446.173 195.611 452.27 192.506 458.548C191.036 458.62 189.557 458.657 188.07 458.657C186.582 458.657 185.103 458.62 183.633 458.548C180.529 452.27 177.115 446.173 173.412 440.276C178.144 441.258 183.046 441.774 188.07 441.774ZM209.173 370.021C209.173 381.676 199.725 391.125 188.07 391.125C176.414 391.125 166.966 381.676 166.966 370.021C166.966 358.366 176.414 348.917 188.07 348.917C199.725 348.917 209.173 358.366 209.173 370.021ZM242.939 370.021C242.94 400.325 218.373 424.891 188.07 424.891C157.766 424.891 133.2 400.325 133.2 370.021C133.2 339.717 157.766 315.151 188.07 315.151C218.373 315.151 242.939 339.717 242.939 370.021ZM226.056 370.021C226.056 391 209.049 408.008 188.07 408.008C167.09 408.008 150.083 391 150.083 370.021C150.083 349.041 167.09 332.034 188.07 332.034C209.049 332.034 226.056 349.041 226.056 370.021ZM33.686 706.505C39.2796 707.474 44.7962 708.668 50.2261 710.077C59.9749 642.684 117.976 590.908 188.07 590.908C258.163 590.908 316.164 642.684 325.913 710.077C331.343 708.668 336.859 707.475 342.453 706.505C331.039 631.497 266.266 574.025 188.07 574.025C109.873 574.025 45.0996 631.497 33.686 706.505ZM188.07 607.791C250.547 607.791 302.091 654.6 309.546 715.061C303.999 717.005 298.561 719.18 293.242 721.573C288.856 667.328 243.444 624.674 188.07 624.674C132.695 624.674 87.2831 667.328 82.8974 721.573C77.5784 719.18 72.1399 717.005 66.5935 715.06C74.0481 654.6 125.592 607.791 188.07 607.791ZM276.705 729.926C276.561 681.096 236.933 641.557 188.07 641.557C139.206 641.557 99.5779 681.096 99.4338 729.926C105.535 733.36 111.444 737.095 117.142 741.11C116.598 737.55 116.316 733.905 116.316 730.193C116.316 690.565 148.441 658.44 188.07 658.44C227.698 658.44 259.823 690.565 259.823 730.193C259.823 733.905 259.541 737.551 258.997 741.11C264.695 737.095 270.604 733.36 276.705 729.926ZM188.07 801.946C193.093 801.946 197.995 801.43 202.727 800.448C199.024 806.345 195.611 812.442 192.506 818.72C191.036 818.792 189.557 818.829 188.07 818.829C186.582 818.829 185.103 818.792 183.633 818.72C180.529 812.442 177.115 806.345 173.412 800.448C178.144 801.43 183.046 801.946 188.07 801.946ZM209.173 730.193C209.173 741.848 199.725 751.297 188.07 751.297C176.414 751.297 166.966 741.848 166.966 730.193C166.966 718.538 176.414 709.089 188.07 709.089C199.725 709.089 209.173 718.538 209.173 730.193ZM242.939 730.193C242.94 760.497 218.373 785.063 188.07 785.063C157.766 785.063 133.2 760.497 133.2 730.193C133.2 699.889 157.766 675.323 188.07 675.323C218.373 675.323 242.939 699.889 242.939 730.193ZM226.056 730.193C226.056 751.173 209.049 768.18 188.07 768.18C167.09 768.18 150.083 751.173 150.083 730.193C150.083 709.213 167.09 692.206 188.07 692.206C209.049 692.206 226.056 709.213 226.056 730.193Z" fill="url(#paint0)"/>
<defs>
  <linearGradient id="paint0" x1="188.393" y1="1656.65" x2="188.393" y2="-523.698" gradientUnits="userSpaceOnUse">
  <stop stop-color="white"/>
  <stop offset="1" stop-color="white" stop-opacity="0"/>
  </linearGradient>
</defs>
</svg>
