<svg width="48" height="48" viewBox="0 0 48 48" fill="none" xmlns="http://www.w3.org/2000/svg">
<path fill-rule="evenodd" clip-rule="evenodd" d="M17.9325 8.19439C17.0132 6.81541 14.9868 6.81541 14.0675 8.19439C11.9391 11.387 10.7189 15.0907 10.5268 18.9097L6.20943 20.3489C5.18858 20.6892 4.5 21.6445 4.5 22.7206V26.9998C4.5 28.3805 5.61929 29.4998 7 29.4998H10.5V29.9998C10.5 31.3964 11.318 32.602 12.501 33.1635C12.5304 35.3552 13.1927 37.493 14.4097 39.3186C15.1663 40.4534 16.8338 40.4534 17.5903 39.3186C18.8073 37.493 19.4696 35.3552 19.499 33.1635C20.682 32.602 21.5 31.3964 21.5 29.9998V28.9269L23.7764 27.7887C23.9172 27.7183 24.0828 27.7183 24.2236 27.7887L26.5 28.9269V29.9998C26.5 31.3964 27.318 32.602 28.501 33.1635C28.5304 35.3552 29.1927 37.493 30.4097 39.3186C31.1662 40.4534 32.8337 40.4534 33.5903 39.3186C34.8073 37.493 35.4696 35.3552 35.499 33.1635C36.682 32.602 37.5 31.3964 37.5 29.9998V29.4998H41C42.3807 29.4998 43.5 28.3805 43.5 26.9998V22.7206C43.5 21.6445 42.8114 20.6892 41.7906 20.3489L37.4732 18.9097C37.2811 15.0907 36.0609 11.387 33.9325 8.19439C33.0132 6.81541 30.9868 6.81541 30.0675 8.19439C28.3904 10.7101 27.2772 13.5431 26.7865 16.4998H21.2135C20.7228 13.5431 19.6096 10.7101 17.9325 8.19439ZM16.4857 33.4998H15.5143C15.5616 34.3088 15.7259 35.1039 16 35.8609C16.2741 35.1039 16.4384 34.3088 16.4857 33.4998ZM18 30.4998C18.2761 30.4998 18.5 30.276 18.5 29.9998V27.9998V19.9771C18.5 16.7309 17.6339 13.5501 16 10.7598C14.3661 13.5501 13.5 16.7309 13.5 19.9771V19.9998V27.9998V29.4998V29.9998C13.5 30.276 13.7239 30.4998 14 30.4998H18ZM34.5 29.9998C34.5 30.276 34.2761 30.4998 34 30.4998H30C29.7239 30.4998 29.5 30.276 29.5 29.9998V27.9998V19.9771C29.5 16.7309 30.3661 13.5501 32 10.7598C33.6339 13.5501 34.5 16.7309 34.5 19.9771V19.9998V27.9998V29.4998V29.9998ZM32 35.8609C31.7259 35.1039 31.5616 34.3088 31.5143 33.4998H32.4857C32.4384 34.3088 32.2741 35.1039 32 35.8609ZM26.5 25.5728V19.9771V19.4998H21.5V19.9771V25.5728L22.4348 25.1054C23.4201 24.6127 24.5799 24.6127 25.5652 25.1054L26.5 25.5728ZM10.5 26.4998V22.081L7.5 23.081V26.4998H10.5ZM37.5 26.4998V22.081L40.5 23.081V26.4998H37.5Z" fill="white"/>
</svg>
