<svg width="37" height="28" viewBox="0 0 37 28" fill="none" xmlns="http://www.w3.org/2000/svg">
<path fill-rule="evenodd" clip-rule="evenodd" d="M34.0714 2.62833C36.4295 4.99716 36.4295 8.80193 36.4295 16.4115V25.5424C36.4295 26.6601 35.5234 27.5662 34.4056 27.5662C33.2879 27.5662 32.3818 26.6601 32.3818 25.5424V21.5756C32.3818 20.4579 31.4756 19.5518 30.3579 19.5518C29.2401 19.5518 28.334 20.4579 28.334 21.5756V25.5424C28.334 26.6601 27.4177 27.5662 26.3 27.5662C25.1934 27.5662 24.2863 26.6692 24.2863 25.5626C24.2863 24.456 23.3893 23.559 22.2827 23.559H22.2422C21.1356 23.559 20.2386 24.456 20.2386 25.5626C20.2386 26.6692 19.3415 27.5662 18.235 27.5662H18.1945C17.0879 27.5662 16.1909 26.6692 16.1909 25.5626C16.1909 24.456 15.2938 23.559 14.1873 23.559L14.1468 23.559C13.0402 23.559 12.1432 24.456 12.1432 25.5626C12.1432 26.6692 11.2461 27.5662 10.1395 27.5662H10.0991C8.99249 27.5662 8.09544 26.6692 8.09544 25.5626C8.09544 24.456 7.19839 23.559 6.09182 23.559H6.05134C4.94477 23.559 4.04772 24.456 4.04772 25.5626C4.04772 26.6692 3.1406 27.5662 2.03403 27.5662C0.916282 27.5662 0 26.6601 0 25.5424V16.4115C0 8.80193 0 4.99717 2.35803 2.62834C2.36673 2.6196 2.37545 2.61087 2.3842 2.60217C4.75303 0.244141 8.55779 0.244141 16.1673 0.244141H20.2622C27.8717 0.244141 31.6764 0.244141 34.0453 2.60217C34.054 2.61087 34.0627 2.61959 34.0714 2.62833ZM30.3579 15.585C31.4756 15.585 32.3817 14.6789 32.3817 13.5611C32.3817 12.4434 31.4756 11.5373 30.3579 11.5373C29.2401 11.5373 28.334 12.4434 28.334 13.5611C28.334 14.6789 29.2401 15.585 30.3579 15.585Z" fill="white"/>
</svg>
