<svg width="32" height="32" viewBox="0 0 32 32" fill="none" xmlns="http://www.w3.org/2000/svg">
<path fill-rule="evenodd" clip-rule="evenodd" d="M10.3328 9.66699C6.60855 9.66699 3.66602 12.5448 3.66602 16.0004C3.66602 19.456 6.60874 22.3337 10.3328 22.3337C14.0569 22.3337 16.9993 19.4568 16.9993 16.0004C16.9993 12.5441 14.0571 9.66699 10.3328 9.66699ZM1.66602 16.0004C1.66602 11.3575 5.58854 7.66699 10.3328 7.66699C13.7749 7.66699 16.7843 9.60923 18.177 12.4489C18.3611 11.8519 18.5918 11.2989 18.8636 10.8047C19.6029 9.46026 20.7866 8.33366 22.3324 8.33366C23.8781 8.33366 25.0619 9.45982 25.8014 10.8042C25.8849 10.9561 25.9645 11.1134 26.0401 11.2759C26.0518 11.2131 26.0637 11.1512 26.0759 11.0903C26.2031 10.4543 26.366 9.87478 26.5762 9.43017C26.6801 9.21041 26.8203 8.96975 27.0153 8.7702C27.212 8.569 27.5434 8.33366 27.9992 8.33366C28.455 8.33366 28.7864 8.56895 28.9831 8.77013C29.1781 8.96966 29.3183 9.2103 29.4222 9.43006C29.6325 9.87465 29.7954 10.4541 29.9226 11.0901C30.1804 12.3785 30.3327 14.114 30.3327 16.0003C30.3327 17.8861 30.1804 19.6215 29.9227 20.9101C29.7955 21.5461 29.6326 22.1257 29.4224 22.5704C29.3184 22.7902 29.1782 23.0309 28.9832 23.2304C28.7865 23.4317 28.455 23.667 27.9992 23.667C27.5435 23.667 27.212 23.4318 27.0153 23.2305C26.8203 23.031 26.6801 22.7903 26.5761 22.5705C26.3659 22.1259 26.203 21.5464 26.0758 20.9104C26.0637 20.8495 26.0517 20.7877 26.0401 20.725C25.9646 20.8872 25.885 21.0444 25.8016 21.196C25.0623 22.5404 23.8785 23.667 22.3327 23.667C20.7868 23.667 19.6031 22.5404 18.8637 21.196C18.5919 20.7018 18.3612 20.1488 18.177 19.5518C16.7843 22.3915 13.7747 24.3337 10.3328 24.3337C5.58887 24.3337 1.66602 20.6434 1.66602 16.0004ZM20.6161 11.7684C20.0483 12.8009 19.666 14.2953 19.666 16.0003C19.666 17.7053 20.0483 19.1997 20.6162 20.2322C21.2039 21.3008 21.8535 21.667 22.3327 21.667C22.8119 21.667 23.4615 21.3008 24.0492 20.2322C24.617 19.1997 24.9994 17.7053 24.9994 16.0003H24.9991C24.9991 14.2949 24.6168 12.8005 24.049 11.7681C23.4613 10.6997 22.8118 10.3337 22.3324 10.3337C21.8532 10.3337 21.2037 10.6998 20.6161 11.7684ZM27.666 16.0003C27.666 14.3075 27.796 12.7903 27.9993 11.68C28.2027 12.7903 28.3327 14.3074 28.3327 16.0003C28.3327 17.6931 28.2027 19.2105 27.9993 20.321C27.7959 19.2106 27.666 17.6933 27.666 16.0003Z" fill="white"/>
</svg>
