<svg width="42" height="124" viewBox="0 0 42 124" fill="none" xmlns="http://www.w3.org/2000/svg">
<path d="M36 78.8966L37.5 78.8966L36 78.8966ZM0.939341 110.939C0.353557 111.525 0.353557 112.475 0.939342 113.061L10.4853 122.607C11.0711 123.192 12.0208 123.192 12.6066 122.607C13.1924 122.021 13.1924 121.071 12.6066 120.485L4.12132 112L12.6066 103.515C13.1924 102.929 13.1924 101.979 12.6066 101.393C12.0208 100.808 11.0711 100.808 10.4853 101.393L0.939341 110.939ZM34.5 78.8966C34.5 91.2471 32.5487 98.98 27.8532 103.701C23.1587 108.421 15.3514 110.5 2.59649 110.5L2.59649 113.5C15.4907 113.5 24.3851 111.442 29.9802 105.816C35.5741 100.192 37.5 91.3736 37.5 78.8966L34.5 78.8966ZM2.59649 110.5L2 110.5L2 113.5L2.59649 113.5L2.59649 110.5ZM37.5 78.8966L37.5 11L34.5 11L34.5 78.8966L37.5 78.8966Z" fill="white"/>
<circle r="4.5" transform="matrix(-1 0 0 1 36 6)" stroke="white" stroke-width="3"/>
</svg>
