<svg width="52" height="92" viewBox="0 0 52 92" fill="none" xmlns="http://www.w3.org/2000/svg">
<path d="M40.2353 6L40.2353 4.5L40.2353 4.5L40.2353 6ZM13.0607 91.0607C12.4749 91.6464 11.5251 91.6464 10.9393 91.0607L1.3934 81.5147C0.807611 80.9289 0.807611 79.9792 1.3934 79.3934C1.97919 78.8076 2.92893 78.8076 3.51472 79.3934L12 87.8787L20.4853 79.3934C21.0711 78.8076 22.0208 78.8076 22.6066 79.3934C23.1924 79.9792 23.1924 80.9289 22.6066 81.5147L13.0607 91.0607ZM40.2353 7.5C29.7138 7.5 23.2018 9.18826 19.2416 13.1823C15.2764 17.1815 13.5 23.8642 13.5 34.8895L10.5 34.8895C10.5 23.7319 12.2531 15.9698 17.1113 11.07C21.9747 6.16499 29.5803 4.5 40.2353 4.5L40.2353 7.5ZM13.5 34.8895L13.5 90L10.5 90L10.5 34.8895L13.5 34.8895ZM40.2353 4.5L41 4.5L41 7.5L40.2353 7.5L40.2353 4.5Z" fill="white"/>
<circle cx="46" cy="6" r="4.5" transform="rotate(90 46 6)" stroke="white" stroke-width="3"/>
</svg>
