<svg width="52" height="92" viewBox="0 0 52 92" fill="none" xmlns="http://www.w3.org/2000/svg">
<path d="M11.7647 6L11.7647 4.5L11.7647 4.5L11.7647 6ZM38.9393 91.0607C39.5251 91.6464 40.4749 91.6464 41.0607 91.0607L50.6066 81.5147C51.1924 80.9289 51.1924 79.9792 50.6066 79.3934C50.0208 78.8076 49.0711 78.8076 48.4853 79.3934L40 87.8787L31.5147 79.3934C30.9289 78.8076 29.9792 78.8076 29.3934 79.3934C28.8076 79.9792 28.8076 80.9289 29.3934 81.5147L38.9393 91.0607ZM11.7647 7.5C22.2862 7.5 28.7982 9.18826 32.7584 13.1823C36.7236 17.1815 38.5 23.8642 38.5 34.8895L41.5 34.8895C41.5 23.7319 39.7469 15.9698 34.8887 11.07C30.0253 6.16499 22.4197 4.5 11.7647 4.5L11.7647 7.5ZM38.5 34.8895L38.5 90L41.5 90L41.5 34.8895L38.5 34.8895ZM11.7647 4.5L11 4.5L11 7.5L11.7647 7.5L11.7647 4.5Z" fill="white"/>
<circle r="4.5" transform="matrix(-4.37114e-08 1 1 4.37114e-08 6 6)" stroke="white" stroke-width="3"/>
</svg>
