<svg width="42" height="124" viewBox="0 0 42 124" fill="none" xmlns="http://www.w3.org/2000/svg">
<path d="M6 78.8966L4.5 78.8966L6 78.8966ZM41.0607 110.939C41.6464 111.525 41.6464 112.475 41.0607 113.061L31.5147 122.607C30.9289 123.192 29.9792 123.192 29.3934 122.607C28.8076 122.021 28.8076 121.071 29.3934 120.485L37.8787 112L29.3934 103.515C28.8076 102.929 28.8076 101.979 29.3934 101.393C29.9792 100.808 30.9289 100.808 31.5147 101.393L41.0607 110.939ZM7.5 78.8966C7.5 91.2471 9.45132 98.98 14.1468 103.701C18.8413 108.421 26.6486 110.5 39.4035 110.5L39.4035 113.5C26.5093 113.5 17.6149 111.442 12.0198 105.816C6.42587 100.192 4.5 91.3736 4.5 78.8966L7.5 78.8966ZM39.4035 110.5L40 110.5L40 113.5L39.4035 113.5L39.4035 110.5ZM4.5 78.8966L4.5 11L7.5 11L7.5 78.8966L4.5 78.8966Z" fill="white"/>
<circle cx="6" cy="6" r="4.5" stroke="white" stroke-width="3"/>
</svg>
