<?xml version="1.0" encoding="UTF-8"?>
<svg width="84" height="22" viewBox="0 0 84 22" xmlns="http://www.w3.org/2000/svg">
<path d="m41.851 4.595v12.832c3e-4 0.0258-0.0045 0.0514-0.0142 0.0752-0.0097 0.0239-0.0241 0.0456-0.0424 0.0638-0.0182 0.0182-0.0399 0.0326-0.0638 0.0423-0.0238 0.0097-0.0494 0.0146-0.0752 0.0143h-1.3445c-0.305-0.0025-0.6048-0.0795-0.8732-0.2243-0.2684-0.1449-0.4974-0.3532-0.6668-0.6068l-6.0624-9.3613 0.1955 4.6685v5.3528c4e-4 0.0257-0.0045 0.0513-0.0142 0.0752-0.0097 0.0238-0.0241 0.0455-0.0423 0.0638-0.0182 0.0182-0.0399 0.0326-0.0638 0.0423s-0.0495 0.0145-0.0752 0.0142h-1.7601c-0.0258 3e-4 -0.0513-0.0045-0.0752-0.0142s-0.0456-0.0241-0.0638-0.0423c-0.0182-0.0183-0.0326-0.04-0.0423-0.0638-0.0098-0.0239-0.0146-0.0495-0.0143-0.0752v-12.857c-3e-4 -0.02577 0.0045-0.05135 0.0143-0.07522 0.0097-0.02387 0.0241-0.04556 0.0423-0.06378s0.0399-0.03261 0.0638-0.04233c0.0239-0.00971 0.0494-0.01454 0.0752-0.01421h1.32c0.3051 0.00243 0.6049 0.07943 0.8733 0.22428s0.4973 0.35315 0.6668 0.60675l6.0624 9.3368-0.1955-4.6684v-5.3039c-4e-4 -0.02577 0.0045-0.05135 0.0142-0.07522s0.0241-0.04556 0.0423-0.06378 0.0399-0.03261 0.0638-0.04233c0.0239-0.00971 0.0494-0.01454 0.0752-0.01421h1.7601c0.1466 0 0.22 0.07333 0.22 0.19554z" fill="#fff"/>
<path d="m59.89 17.598h-1.8578c-0.0294 2e-4 -0.0584-0.0066-0.0846-0.0201-0.0261-0.0134-0.0485-0.033-0.0654-0.0571-0.0168-0.0241-0.0276-0.0519-0.0313-0.081-0.0036-0.0292-2e-4 -0.0588 0.0101-0.0863l4.938-12.783c0.0217-0.04777 0.0558-0.08885 0.0988-0.11894 0.043-0.0301 0.0933-0.0481 0.1456-0.05215h2.3468c0.0539-0.00247 0.1071 0.01298 0.1513 0.04393 0.0443 0.03095 0.077 0.07566 0.0931 0.12716l4.9624 12.783c0.0103 0.0275 0.0138 0.0571 0.0101 0.0863-0.0037 0.0291-0.0144 0.0569-0.0313 0.081-0.0168 0.0241-0.0393 0.0437-0.0654 0.0571-0.0261 0.0135-0.0551 0.0203-0.0845 0.0201h-1.8578c-0.0377-4e-4 -0.0743-0.0123-0.1049-0.0342-0.0306-0.0218-0.0537-0.0526-0.0663-0.0881l-3.9845-10.51c-0.015-0.03276-0.0392-0.06052-0.0695-0.07999-0.0303-0.01946-0.0656-0.02981-0.1017-0.02981-0.036 0-0.0713 0.01035-0.1016 0.02981-0.0303 0.01947-0.0544 0.04723-0.0695 0.07999l-3.9845 10.51c-0.0201 0.0349-0.0484 0.0643-0.0825 0.0857-0.0341 0.0213-0.073 0.0338-0.1131 0.0366z" fill="#fff"/>
<path d="m83.551 17.305-3.7157-4.7418c2.1023-0.391 3.3246-1.8087 3.3246-3.984 0-2.4931-1.6134-4.1796-4.498-4.1796h-5.1823c-0.0712 6.4e-4 -0.1392 0.02917-0.1895 0.07946-0.0503 0.05028-0.0788 0.1183-0.0794 0.18941-1e-3 0.23137 0.0438 0.46065 0.132 0.6746 0.0881 0.21395 0.2177 0.40833 0.3813 0.57194s0.358 0.2932 0.572 0.3813c0.214 0.08809 0.4433 0.13295 0.6747 0.13198h3.4957c1.7356 0 2.5667 0.87991 2.5667 2.1753 0 1.2954-0.8067 2.1754-2.5667 2.1754h-4.938c-0.0711 6e-4 -0.1391 0.0291-0.1894 0.0794s-0.0788 0.1183-0.0795 0.1894v6.355c-3e-4 0.0257 0.0045 0.0513 0.0143 0.0752 0.0097 0.0238 0.0241 0.0455 0.0423 0.0638 0.0182 0.0182 0.0399 0.0326 0.0638 0.0423s0.0494 0.0145 0.0752 0.0142h1.7601c0.0257 3e-4 0.0513-0.0045 0.0752-0.0142s0.0456-0.0241 0.0638-0.0423c0.0182-0.0183 0.0326-0.04 0.0423-0.0638 0.0097-0.0239 0.0146-0.0495 0.0142-0.0752v-4.7173h2.029l3.2267 4.204c0.1707 0.226 0.3927 0.4082 0.6478 0.5315 0.255 0.1233 0.5358 0.184 0.819 0.1773h1.3445c0.0977 0 0.1711-0.1711 0.0733-0.2933z" fill="#fff"/>
<path d="m54.319 4.3989h-8.1892c-0.0326-0.00216-0.0654 0.00268-0.096 0.0142-0.0307 0.01152-0.0585 0.02945-0.0816 0.05259-0.0232 0.02314-0.0411 0.05096-0.0526 0.0816-0.0115 0.03063-0.0164 0.06337-0.0142 0.09603 0.0025 0.47242 0.1914 0.92477 0.5255 1.2588s0.7865 0.52287 1.259 0.52544h6.6491c0.0257 3.2e-4 0.0513-0.00451 0.0752-0.01422s0.0456-0.0241 0.0638-0.04232c0.0182-0.01823 0.0326-0.03991 0.0423-0.06379 0.0097-0.02387 0.0146-0.04944 0.0142-0.07521v-1.6621c-0.0083-0.0465-0.0321-0.08878-0.0677-0.11988-0.0355-0.0311-0.0806-0.04917-0.1278-0.05121zm0 11.17h-6.1113c-0.0258 4e-4 -0.0514-0.0045-0.0753-0.0142-0.0238-0.0097-0.0455-0.0241-0.0638-0.0423-0.0182-0.0182-0.0326-0.0399-0.0423-0.0638s-0.0145-0.0494-0.0142-0.0752v-3.2997c-3e-4 -0.0257 0.0045-0.0513 0.0142-0.0752s0.0241-0.0455 0.0423-0.0638c0.0183-0.0182 0.04-0.0326 0.0638-0.0423 0.0239-0.0097 0.0495-0.0145 0.0753-0.0142h5.6468c0.0258 3e-4 0.0514-0.0045 0.0752-0.0142 0.0239-0.0097 0.0456-0.0241 0.0638-0.0423 0.0183-0.0183 0.0326-0.04 0.0424-0.0638 0.0097-0.0239 0.0145-0.0495 0.0142-0.0752v-1.6621c3e-4 -0.02577-0.0045-0.05134-0.0142-0.07521-0.0098-0.02388-0.0241-0.04556-0.0424-0.06379-0.0182-0.01822-0.0399-0.03261-0.0638-0.04232-0.0238-0.00971-0.0494-0.01455-0.0752-0.01422h-7.7002c-0.0712 6.4e-4 -0.1392 0.02917-0.1895 0.07946-0.0503 0.05028-0.0788 0.11828-0.0794 0.18938v7.2104c6e-4 0.0711 0.0291 0.1391 0.0794 0.1894s0.1183 0.0788 0.1895 0.0795h8.1647c0.0257 3e-4 0.0513-0.0045 0.0752-0.0142s0.0456-0.0241 0.0638-0.0424c0.0182-0.0182 0.0326-0.0399 0.0423-0.0637 0.0097-0.0239 0.0146-0.0495 0.0142-0.0753v-1.662c-0.0135-0.0416-0.0396-0.078-0.0746-0.1042-0.035-0.0263-0.0772-0.0411-0.1209-0.0425z" fill="#fff"/>
<path d="m17.65 1.1246-4.5957 6.8193c-0.0665 0.09903-0.0945 0.21895-0.0788 0.33718 0.0158 0.11823 0.0743 0.22661 0.1645 0.30473 0.0901 0.07812 0.2057 0.12059 0.325 0.11941s0.234-0.04594 0.3226-0.12583l4.5224-3.9352c0.0263-0.02377 0.0591-0.03906 0.0942-0.04386s0.0709 0.00111 0.1026 0.01696c0.0317 0.01584 0.0578 0.04089 0.0751 0.07185 0.0172 0.03097 0.0247 0.06642 0.0214 0.1017v12.294c-5e-4 0.0366-0.0119 0.0723-0.0329 0.1024-0.0209 0.03-0.0504 0.0531-0.0846 0.0663-0.0342 0.0131-0.0716 0.0157-0.1073 0.0075-0.0357-0.0083-0.0681-0.0271-0.093-0.054l-13.689-16.376c-0.21556-0.26406-0.48804-0.47597-0.79706-0.61987-0.30902-0.14391-0.64658-0.21609-0.98744-0.21115h-0.48891c-0.61855 0.0051635-1.2099 0.25481-1.645 0.69443-0.4351 0.43962-0.67857 1.0335-0.67726 1.652v17.305c-4.2738e-4 0.512 0.16666 1.0102 0.47579 1.4184s0.74331 0.7041 1.2363 0.8426c0.49302 0.1384 1.0178 0.1119 1.4943-0.0757s0.87856-0.5258 1.1448-0.9632l4.5957-6.8193c0.0665-0.099 0.09449-0.219 0.07871-0.3372s-0.07426-0.2266-0.16441-0.3047-0.20575-0.1206-0.32504-0.1194-0.23403 0.0459-0.32262 0.1258l-4.5224 3.9107c-0.02628 0.0238-0.05912 0.0391-0.09423 0.0439-0.03512 0.0048-0.07086-0.0011-0.10256-0.017-0.03169-0.0158-0.05787-0.0409-0.0751-0.0718-0.01722-0.031-0.0247-0.0664-0.02145-0.1017v-12.27c4.8e-4 -0.03664 0.01194-0.0723 0.03288-0.10237 0.02095-0.03007 0.05042-0.05317 0.08463-0.06632 0.03421-0.01316 0.07157-0.01576 0.10727-0.00747 0.0357 0.00828 0.0681 0.02707 0.09301 0.05395l13.689 16.376c0.2173 0.2621 0.4901 0.4726 0.7987 0.6163 0.3087 0.1437 0.6454 0.2171 0.9858 0.2147h0.4889c0.6224 0 1.2193-0.2472 1.6594-0.6872 0.4401-0.4401 0.6874-1.0369 0.6874-1.6592v-17.305c-0.0096-0.62355-0.2633-1.2185-0.7066-1.6572-0.4433-0.43868-1.0409-0.68613-1.6646-0.68926-0.4024 7.3243e-4 -0.7978 0.10444-1.1487 0.30125s-0.6455 0.48016-0.8558 0.82308z" fill="#fff"/>
</svg>
