<svg width="180" height="162" viewBox="0 0 180 162" fill="none" xmlns="http://www.w3.org/2000/svg">
<path d="M88.9384 161.061C89.5242 161.646 90.4739 161.646 91.0597 161.061L100.606 151.515C101.191 150.929 101.191 149.979 100.606 149.393C100.02 148.808 99.0701 148.808 98.4843 149.393L89.999 157.879L81.5137 149.393C80.928 148.808 79.9782 148.808 79.3924 149.393C78.8066 149.979 78.8066 150.929 79.3924 151.515L88.9384 161.061ZM88.499 11L88.499 160L91.499 160L91.499 11L88.499 11Z" fill="white"/>
<circle cx="89.999" cy="6" r="4.5" stroke="white" stroke-width="3"/>
<path d="M69.998 24L68.498 24V24L69.998 24ZM0.937394 78.9393C0.351607 79.5251 0.351608 80.4749 0.937394 81.0607L10.4833 90.6066C11.0691 91.1924 12.0189 91.1924 12.6047 90.6066C13.1904 90.0208 13.1904 89.0711 12.6047 88.4853L4.11937 80L12.6047 71.5147C13.1904 70.9289 13.1904 69.9792 12.6047 69.3934C12.0189 68.8076 11.0691 68.8076 10.4833 69.3934L0.937394 78.9393ZM68.498 24C68.498 44.939 65.2346 58.3986 57.0548 66.697C48.88 74.9902 35.426 78.5 13.9981 78.5L13.9981 81.5C35.5701 81.5 50.1161 78.0098 59.1913 68.803C68.2614 59.6014 71.498 45.061 71.498 24L68.498 24ZM13.9981 78.5L1.99805 78.5L1.99805 81.5L13.9981 81.5L13.9981 78.5ZM71.498 24L71.4981 10.5L68.4981 10.5L68.498 24L71.498 24Z" fill="white"/>
<circle cx="69.999" cy="6" r="4.5" stroke="white" stroke-width="3"/>
<path d="M110 24L111.5 24V24L110 24ZM179.061 78.9393C179.646 79.5251 179.646 80.4749 179.061 81.0607L169.515 90.6066C168.929 91.1924 167.979 91.1924 167.393 90.6066C166.808 90.0208 166.808 89.0711 167.393 88.4853L175.879 80L167.393 71.5147C166.808 70.9289 166.808 69.9792 167.393 69.3934C167.979 68.8076 168.929 68.8076 169.515 69.3934L179.061 78.9393ZM111.5 24C111.5 44.939 114.763 58.3986 122.943 66.697C131.118 74.9902 144.572 78.5 166 78.5L166 81.5C144.428 81.5 129.882 78.0098 120.807 68.803C111.737 59.6014 108.5 45.061 108.5 24L111.5 24ZM166 78.5L178 78.5L178 81.5L166 81.5L166 78.5ZM108.5 24L108.5 9.50001L111.5 9.49999L111.5 24L108.5 24Z" fill="white"/>
<circle r="4.5" transform="matrix(-1 0 0 1 109.999 6)" stroke="white" stroke-width="3"/>
</svg>
