<svg width="180" height="153" viewBox="0 0 180 153" fill="none" xmlns="http://www.w3.org/2000/svg">
<path d="M88.9384 152.061C89.5242 152.646 90.4739 152.646 91.0597 152.061L100.606 142.515C101.191 141.929 101.191 140.979 100.606 140.393C100.02 139.808 99.0701 139.808 98.4843 140.393L89.999 148.879L81.5137 140.393C80.928 139.808 79.9782 139.808 79.3924 140.393C78.8066 140.979 78.8066 141.929 79.3924 142.515L88.9384 152.061ZM88.499 2L88.499 151L91.499 151L91.499 2L88.499 2Z" fill="white"/>
<path d="M69.998 15L68.498 15V15L69.998 15ZM0.937363 69.9393C0.351577 70.5251 0.351577 71.4749 0.937364 72.0607L10.4833 81.6066C11.0691 82.1924 12.0188 82.1924 12.6046 81.6066C13.1904 81.0208 13.1904 80.0711 12.6046 79.4853L4.11934 71L12.6046 62.5147C13.1904 61.9289 13.1904 60.9792 12.6046 60.3934C12.0188 59.8076 11.0691 59.8076 10.4833 60.3934L0.937363 69.9393ZM68.498 15C68.498 35.939 65.2346 49.3986 57.0548 57.697C48.88 65.9902 35.426 69.5 13.998 69.5L13.998 72.5C35.5701 72.5 50.116 69.0098 59.1913 59.803C68.2614 50.6014 71.498 36.061 71.498 15L68.498 15ZM13.998 69.5L1.99802 69.5L1.99802 72.5L13.998 72.5L13.998 69.5ZM71.498 15L71.498 1.5L68.498 1.5L68.498 15L71.498 15Z" fill="white"/>
<path d="M110 15L111.5 15V15L110 15ZM179.061 69.9393C179.646 70.5251 179.646 71.4749 179.061 72.0607L169.515 81.6066C168.929 82.1924 167.979 82.1924 167.393 81.6066C166.808 81.0208 166.808 80.0711 167.393 79.4853L175.879 71L167.393 62.5147C166.808 61.9289 166.808 60.9792 167.393 60.3934C167.979 59.8076 168.929 59.8076 169.515 60.3934L179.061 69.9393ZM111.5 15C111.5 35.939 114.763 49.3986 122.943 57.697C131.118 65.9902 144.572 69.5 166 69.5L166 72.5C144.428 72.5 129.882 69.0098 120.807 59.803C111.737 50.6014 108.5 36.061 108.5 15L111.5 15ZM166 69.5L178 69.5L178 72.5L166 72.5L166 69.5ZM108.5 15L108.5 0.500006L111.5 0.499994L111.5 15L108.5 15Z" fill="white"/>
</svg>
