<svg width="32" height="32" viewBox="0 0 32 32" fill="none" xmlns="http://www.w3.org/2000/svg">
<path fill-rule="evenodd" clip-rule="evenodd" d="M7.71671 18.6925C7.77508 18.7121 7.83399 18.7261 7.89284 18.7347C7.95702 18.8855 8.03995 19.0806 8.13669 19.3088C8.37279 19.8656 8.69091 20.6187 9.01928 21.4044C9.68894 23.0066 10.3644 24.6583 10.5136 25.131C10.6983 25.7155 10.8935 26.1128 11.1066 26.384C11.2168 26.5243 11.3442 26.6468 11.4934 26.7395C11.5684 26.7862 11.6477 26.8245 11.7305 26.853C11.7342 26.8543 11.7378 26.8555 11.7414 26.8568C12.1681 27.0178 12.5571 26.9507 12.8007 26.8687C12.931 26.8248 13.0365 26.7718 13.1112 26.7288C13.1493 26.7069 13.1815 26.6865 13.2072 26.6692L13.2132 26.6651L16.9815 24.3151L21.3342 27.6522C21.3985 27.7015 21.4685 27.7428 21.5427 27.7751C22.0656 28.0033 22.572 28.0829 23.0483 28.0178C23.5238 27.9529 23.9014 27.7531 24.1824 27.5283C24.4576 27.3081 24.6442 27.0615 24.7604 26.8782C24.8197 26.7846 24.8643 26.7019 24.8957 26.6385C24.9115 26.6066 24.9242 26.5792 24.934 26.5571L24.9466 26.528L24.9513 26.5166L24.9533 26.5118L24.9542 26.5095L24.955 26.5074C24.9779 26.4502 24.9954 26.3911 25.0074 26.3307L28.9811 6.29666C28.9938 6.23259 29.0002 6.16743 29.0002 6.10211C29.0002 5.51542 28.7791 4.95755 28.2593 4.61903C27.8151 4.3297 27.3202 4.31724 27.0074 4.34098C26.67 4.36659 26.3584 4.44988 26.1493 4.51644C26.0405 4.55107 25.9493 4.58449 25.8835 4.60999C25.8504 4.6228 25.8233 4.63379 25.8031 4.64218L25.788 4.64856L3.503 13.3906L3.50012 13.3917C3.48591 13.3968 3.46768 13.4036 3.44601 13.4121C3.40286 13.4289 3.34505 13.4525 3.27751 13.4831C3.1458 13.5428 2.96102 13.6361 2.77141 13.766C2.46849 13.9734 1.77184 14.5416 1.88915 15.4793C1.98273 16.2274 2.49524 16.6868 2.80749 16.9078C2.97895 17.0291 3.14184 17.1158 3.26046 17.1723C3.3155 17.1985 3.42976 17.2449 3.47934 17.2651L3.49185 17.2702L7.71671 18.6925ZM26.5679 6.49016L26.5648 6.49151C26.5537 6.49634 26.5425 6.50096 26.5312 6.50538L4.2192 15.258C4.20755 15.2626 4.19582 15.267 4.184 15.2711L4.17158 15.2758C4.15731 15.2814 4.13328 15.2911 4.10311 15.3048C4.08601 15.3125 4.06816 15.321 4.04996 15.3301C4.07497 15.3442 4.0989 15.3564 4.12016 15.3665C4.14057 15.3762 4.15614 15.3829 4.16467 15.3864L8.35484 16.797C8.43153 16.8228 8.50303 16.8571 8.56866 16.8983L22.4043 8.79898L22.4173 8.79132C22.4274 8.78537 22.4406 8.77772 22.4565 8.76875C22.488 8.75094 22.5312 8.72724 22.5827 8.70105C22.6787 8.65218 22.8324 8.57963 23.0054 8.52614C23.1259 8.4889 23.4812 8.38398 23.8654 8.50719C24.1024 8.58323 24.3479 8.74671 24.5075 9.02365C24.5869 9.16124 24.6291 9.29945 24.6496 9.42597C24.704 9.62528 24.6953 9.82208 24.6528 9.992C24.5611 10.358 24.304 10.6435 24.07 10.8619C23.8695 11.0491 21.2757 13.5502 18.7168 16.0193C17.4407 17.2505 16.1777 18.4696 15.2336 19.3809L14.6136 19.9795L22.4428 25.982C22.6224 26.0463 22.7285 26.043 22.7776 26.0363C22.8361 26.0283 22.884 26.0057 22.9329 25.9666C22.9876 25.9228 23.0355 25.8637 23.0713 25.8073L23.0727 25.805L26.9267 6.37436C26.8695 6.38811 26.8117 6.40448 26.7559 6.42223C26.6928 6.44232 26.6407 6.46146 26.6062 6.47484C26.5891 6.48146 26.5768 6.48648 26.5701 6.48926L26.5679 6.49016ZM15.2862 23.0154L13.7242 21.8178L13.3457 24.2255L15.2862 23.0154ZM12.2913 19.4415L13.8446 17.942C14.7887 17.0306 16.0519 15.8114 17.3281 14.58L18.6247 13.329L9.93137 18.4181L9.97802 18.528C10.215 19.0869 10.5345 19.8433 10.8646 20.6331C11.1114 21.2237 11.3696 21.8456 11.6047 22.4213L11.982 20.0208C12.0184 19.7893 12.1315 19.589 12.2913 19.4415Z" fill="white"/>
</svg>
