<svg width="32" height="32" viewBox="0 0 32 32" fill="none" xmlns="http://www.w3.org/2000/svg">
<path fill-rule="evenodd" clip-rule="evenodd" d="M20.029 4.45754C20.7069 4.34143 21.466 4.30266 22.1803 4.42352C23.4561 4.63936 24.6346 5.23234 25.5661 6.12135C26.1751 6.13512 26.7735 6.01516 27.303 5.84414C27.7511 5.69941 28.1297 5.52464 28.395 5.38646C28.5269 5.31775 28.6287 5.25914 28.695 5.21946C28.7281 5.19965 28.7521 5.18466 28.7664 5.17561L28.7791 5.16752C29.1748 4.90389 29.7018 4.9552 30.0389 5.29054C30.3762 5.62596 30.4305 6.15252 30.1688 6.54972C29.8919 6.97012 29.5074 7.71954 29.0767 8.55922C29.0089 8.69125 28.9401 8.8255 28.8703 8.96107C28.6232 9.44102 28.3699 9.9261 28.1338 10.3423C27.9855 10.6036 27.827 10.8689 27.6671 11.0981V11.4632C27.6773 12.804 27.5235 14.1379 27.2114 15.4355C27.015 16.252 26.7559 17.0541 26.4356 17.8346C25.6057 19.8568 24.3812 21.6934 22.8336 23.2371C21.2859 24.7807 19.4462 26.0005 17.4219 26.8252C15.3993 27.6492 13.233 28.0623 11.0492 28.0404C7.88345 28.0431 4.78429 27.131 2.12467 25.4138C1.73293 25.1609 1.568 24.6708 1.72711 24.2325C1.88623 23.7942 2.32715 23.524 2.78992 23.5813C3.1904 23.6308 3.59361 23.655 3.99715 23.6537C5.44708 23.6497 6.8694 23.3293 8.16788 22.7258C7.75515 22.5379 7.3611 22.3062 6.9929 22.0332C5.91061 21.2306 5.1054 20.1107 4.68931 18.8292C4.58118 18.4962 4.6551 18.1309 4.88418 17.8661C4.88828 17.8613 4.89243 17.8567 4.89661 17.852C4.65191 17.6338 4.42293 17.3962 4.21214 17.1407C3.26372 15.9911 2.74148 14.5492 2.73377 13.0589L2.73375 13.0537L2.73376 12.987C2.73376 12.6326 2.92143 12.3046 3.22703 12.1249C3.3045 12.0794 3.38661 12.0451 3.47108 12.0221C3.01997 11.122 2.78538 10.1281 2.78709 9.11976C2.78656 7.9774 3.08495 6.85478 3.65264 5.86344C3.81652 5.57726 4.11096 5.39028 4.43966 5.36364C4.76837 5.33701 5.08907 5.47415 5.29689 5.73021C6.58029 7.31156 8.18201 8.60523 9.99799 9.52719C10.9315 10.0011 11.9109 10.3714 12.9186 10.6333C13.4836 10.7801 14.0575 10.8929 14.6372 10.9708C14.6117 10.0065 14.8021 9.04266 15.2017 8.15208C15.788 6.84565 16.7913 5.77075 18.0542 5.09596C18.5891 4.81019 19.2991 4.58257 20.029 4.45754ZM4.99146 14.5209C5.16432 15.0074 5.42148 15.4638 5.75489 15.8679C6.40998 16.662 7.31925 17.2054 8.32887 17.4063C8.77858 17.4957 9.10983 17.8796 9.13253 18.3375C9.15523 18.7955 8.86356 19.2102 8.4249 19.3437C8.06157 19.4543 7.68934 19.5313 7.31287 19.5741C7.56164 19.8948 7.85428 20.1821 8.18416 20.4267C8.9324 20.9815 9.835 21.2893 10.7663 21.3072C11.1889 21.3154 11.5607 21.5883 11.6952 21.989C11.8296 22.3896 11.6976 22.8316 11.3655 23.0929C9.96658 24.1936 8.34898 24.9612 6.63491 25.353C8.05556 25.808 9.54548 26.0422 11.0525 26.0404L11.0641 26.0404C12.9842 26.0603 14.889 25.6975 16.6673 24.9731C18.4456 24.2486 20.0617 23.1771 21.4212 21.821C22.7807 20.465 23.8564 18.8517 24.5854 17.0753C24.8668 16.3896 25.0943 15.685 25.2668 14.9678C25.5413 13.8268 25.6763 12.6539 25.6671 11.4749L25.6671 11.467V10.7604C25.6671 10.5179 25.7552 10.2837 25.915 10.1013C26.0073 9.99594 26.1689 9.75253 26.3943 9.35533C26.6085 8.97783 26.8455 8.52462 27.092 8.04571C27.107 8.01675 27.1219 7.98763 27.137 7.95838C26.4975 8.09725 25.7727 8.17003 25.013 8.08792C24.7724 8.06192 24.5493 7.94953 24.3853 7.77161C23.7148 7.0445 22.8219 6.56049 21.8467 6.3955C21.414 6.32229 20.8908 6.33905 20.3667 6.42883C19.7972 6.52638 19.3016 6.69707 18.9967 6.85996C18.1244 7.32606 17.4314 8.06852 17.0264 8.9709C16.6215 9.87328 16.5275 10.8845 16.7593 11.8461C16.8331 12.1526 16.7581 12.4761 16.5568 12.7188C16.3555 12.9615 16.0515 13.095 15.7366 13.0791C14.612 13.0222 13.4994 12.8507 12.4155 12.569C11.269 12.271 10.1547 11.8497 9.09261 11.3105C7.5289 10.5166 6.10483 9.48052 4.87171 8.2436C4.81546 8.53108 4.7869 8.82445 4.78709 9.11971L4.78709 9.12227C4.7857 9.85656 4.9659 10.5798 5.31164 11.2276C5.65739 11.8754 6.15795 12.4277 6.76877 12.8352C7.13947 13.0825 7.30177 13.5453 7.16677 13.97C7.03176 14.3947 6.63203 14.6788 6.18656 14.6667C5.7831 14.6557 5.38302 14.6066 4.99146 14.5209Z" fill="white"/>
</svg>
