<svg width="48" height="48" viewBox="0 0 48 48" fill="none" xmlns="http://www.w3.org/2000/svg">
<path d="M0 24C0 12.6863 0 7.02944 3.51472 3.51472C7.02944 0 12.6863 0 24 0C35.3137 0 40.9706 0 44.4853 3.51472C48 7.02944 48 12.6863 48 24C48 35.3137 48 40.9706 44.4853 44.4853C40.9706 48 35.3137 48 24 48C12.6863 48 7.02944 48 3.51472 44.4853C0 40.9706 0 35.3137 0 24Z" fill="#8991A3"/>
<path d="M27 19.5C27 18.2574 28.0074 17.25 29.25 17.25C30.4926 17.25 31.5 18.2574 31.5 19.5C31.5 20.7426 30.4926 21.75 29.25 21.75C28.0074 21.75 27 20.7426 27 19.5Z" fill="white"/>
<path fill-rule="evenodd" clip-rule="evenodd" d="M16.9013 12.9878C21.6249 12.5772 26.3752 12.5772 31.0987 12.9878L33.3641 13.1848C35.5317 13.3732 37.2877 15.0226 37.6112 17.1742C38.2917 21.6993 38.2917 26.3007 37.6112 30.8258C37.2877 32.9773 35.5317 34.6268 33.3641 34.8152L31.0987 35.0122C26.3752 35.4228 21.6249 35.4228 16.9013 35.0122L14.636 34.8152C12.4683 34.6268 10.7123 32.9773 10.3888 30.8258C9.70833 26.3007 9.70833 21.6993 10.3888 17.1742C10.7123 15.0226 12.4683 13.3732 14.636 13.1848L16.9013 12.9878ZM30.9039 15.2294C26.31 14.83 21.6901 14.83 17.0962 15.2294L14.8308 15.4263C13.6993 15.5247 12.7827 16.3857 12.6138 17.5088C12.2275 20.0777 12.0718 22.6725 12.1467 25.2623L17.9545 19.4545C18.1736 19.2354 18.4733 19.1164 18.783 19.1255C19.0927 19.1346 19.385 19.271 19.5908 19.5026L25.098 25.6982L28.8942 24.4327C29.3188 24.2912 29.7868 24.4148 30.0862 24.7474L35.3649 30.6126C35.373 30.5725 35.3801 30.532 35.3863 30.4912C36.0334 26.1879 36.0334 21.8121 35.3863 17.5088C35.2174 16.3857 34.3007 15.5247 33.1692 15.4263L30.9039 15.2294ZM33.9303 32.382L28.9067 26.8003L25.1058 28.0673C24.6788 28.2096 24.2081 28.0838 23.9092 27.7474L18.7018 21.8892L12.3363 28.2547C12.4095 29.0019 12.502 29.7476 12.6138 30.4912C12.7827 31.6143 13.6993 32.4753 14.8308 32.5737L17.0962 32.7706C21.6901 33.17 26.31 33.17 30.9039 32.7706L33.1692 32.5737C33.4373 32.5504 33.6934 32.4843 33.9303 32.382Z" fill="white"/>
</svg>
