<svg width="19" height="16" viewBox="0 0 19 16" fill="none" xmlns="http://www.w3.org/2000/svg">
<path d="M5.5 13.4393L8.21967 10.7197C8.51256 10.4268 8.98744 10.4268 9.28033 10.7197C9.57322 11.0126 9.57322 11.4874 9.28033 11.7803L5.28033 15.7803C4.98744 16.0732 4.51256 16.0732 4.21967 15.7803L0.21967 11.7803C-0.0732233 11.4874 -0.0732233 11.0126 0.21967 10.7197C0.512563 10.4268 0.987437 10.4268 1.28033 10.7197L4 13.4393L4 3.75C4 3.33579 4.33578 3 4.75 3C5.16421 3 5.5 3.33579 5.5 3.75L5.5 13.4393Z" fill="#8991A3"/>
<path d="M13.498 2.56066L10.7784 5.28033C10.4855 5.57323 10.0106 5.57323 9.71772 5.28033C9.42483 4.98744 9.42483 4.51257 9.71772 4.21967L13.7177 0.219674C14.0106 -0.0732197 14.4855 -0.0732197 14.7784 0.219674L18.7784 4.21967C19.0713 4.51257 19.0713 4.98744 18.7784 5.28033C18.4855 5.57323 18.0106 5.57323 17.7177 5.28033L14.998 2.56066L14.998 12.25C14.998 12.6642 14.6623 13 14.248 13C13.8338 13 13.498 12.6642 13.498 12.25L13.498 2.56066Z" fill="#8991A3"/>
</svg>
