<svg width="19.5" height="14.5" viewBox="0 0 21 16" fill="none" xmlns="http://www.w3.org/2000/svg">
<path d="M8.5455 2.7955C8.98484 2.35616 8.98484 1.64384 8.5455 1.2045C8.10616 0.765165 7.39385 0.765165 6.95451 1.2045L0.954505 7.20451C0.734835 7.42418 0.625 7.71209 0.625 8C0.625 8.15254 0.655359 8.29799 0.710364 8.43063C0.765263 8.56332 0.846644 8.68764 0.954505 8.7955L6.95451 14.7955C7.39385 15.2348 8.10616 15.2348 8.5455 14.7955C8.98484 14.3562 8.98484 13.6438 8.5455 13.2045L4.46599 9.125H19C19.6213 9.125 20.125 8.62132 20.125 8C20.125 7.37868 19.6213 6.875 19 6.875H4.46599L8.5455 2.7955Z" fill="white"/>
</svg>
