<svg width="12" height="13" viewBox="0 0 12 13" fill="none" xmlns="http://www.w3.org/2000/svg">
<path d="M5.99935 5.66699C6.27549 5.66699 6.49935 5.89085 6.49935 6.16699V9.50033C6.49935 9.77647 6.27549 10.0003 5.99935 10.0003C5.72321 10.0003 5.49935 9.77647 5.49935 9.50033V6.16699C5.49935 5.89085 5.72321 5.66699 5.99935 5.66699Z" fill="white"/>
<path d="M5.99935 4.50033C6.36754 4.50033 6.66602 4.20185 6.66602 3.83366C6.66602 3.46547 6.36754 3.16699 5.99935 3.16699C5.63116 3.16699 5.33268 3.46547 5.33268 3.83366C5.33268 4.20185 5.63116 4.50033 5.99935 4.50033Z" fill="white"/>
<path fill-rule="evenodd" clip-rule="evenodd" d="M0.166016 6.50033C0.166016 3.27866 2.77769 0.666992 5.99935 0.666992C9.22101 0.666992 11.8327 3.27866 11.8327 6.50033C11.8327 9.72199 9.22101 12.3337 5.99935 12.3337C2.77769 12.3337 0.166016 9.72199 0.166016 6.50033ZM5.99935 1.66699C3.32997 1.66699 1.16602 3.83095 1.16602 6.50033C1.16602 9.1697 3.32997 11.3337 5.99935 11.3337C8.66873 11.3337 10.8327 9.1697 10.8327 6.50033C10.8327 3.83095 8.66873 1.66699 5.99935 1.66699Z" fill="white"/>
</svg>
