<svg width="12" height="12" viewBox="0 0 12 12" fill="none" xmlns="http://www.w3.org/2000/svg">
<path d="M5.99951 5.16655C6.27565 5.16655 6.49951 5.39041 6.49951 5.66655V8.99988C6.49951 9.27602 6.27565 9.49988 5.99951 9.49988C5.72337 9.49988 5.49951 9.27602 5.49951 8.99988L5.49951 5.66655C5.49951 5.39041 5.72337 5.16655 5.99951 5.16655Z" fill="#8991A3"/>
<path d="M5.99951 3.99988C6.3677 3.99988 6.66618 3.70141 6.66618 3.33322C6.66618 2.96503 6.3677 2.66655 5.99951 2.66655C5.63132 2.66655 5.33285 2.96503 5.33285 3.33322C5.33285 3.70141 5.63132 3.99988 5.99951 3.99988Z" fill="#8991A3"/>
<path fill-rule="evenodd" clip-rule="evenodd" d="M2.87733 0.512384C4.9357 0.282331 7.0633 0.282331 9.12167 0.512384C10.3393 0.648467 11.3225 1.60756 11.4658 2.8322C11.7119 4.93682 11.7119 7.06295 11.4658 9.16756C11.3225 10.3922 10.3393 11.3513 9.12167 11.4874C7.0633 11.7174 4.9357 11.7174 2.87733 11.4874C1.65975 11.3513 0.676481 10.3922 0.533248 9.16756C0.287094 7.06295 0.287094 4.93682 0.533248 2.8322C0.676481 1.60756 1.65975 0.648467 2.87733 0.512384ZM9.0106 1.5062C7.02604 1.28439 4.97296 1.28439 2.98841 1.5062C2.22545 1.59147 1.61475 2.19363 1.52648 2.94837C1.28935 4.9758 1.28935 7.02396 1.52648 9.05139C1.61475 9.80613 2.22545 10.4083 2.98841 10.4936C4.97296 10.7154 7.02604 10.7154 9.0106 10.4936C9.77355 10.4083 10.3843 9.80613 10.4725 9.05139C10.7097 7.02396 10.7097 4.9758 10.4725 2.94837C10.3843 2.19363 9.77355 1.59147 9.0106 1.5062Z" fill="#8991A3"/>
</svg>
