<svg width="41" height="18" viewBox="0 0 41 18" fill="none" xmlns="http://www.w3.org/2000/svg">
<path opacity="0.4" d="M7.852 13.12C7.108 13.12 6.484 13.012 5.98 12.796C5.484 12.572 5.104 12.284 4.84 11.932C4.584 11.572 4.448 11.196 4.432 10.804C4.432 10.732 4.456 10.672 4.504 10.624C4.552 10.576 4.612 10.552 4.684 10.552H5.752C5.856 10.552 5.932 10.576 5.98 10.624C6.036 10.664 6.084 10.716 6.124 10.78C6.172 10.932 6.264 11.084 6.4 11.236C6.536 11.38 6.72 11.5 6.952 11.596C7.192 11.692 7.492 11.74 7.852 11.74C8.428 11.74 8.856 11.644 9.136 11.452C9.424 11.26 9.568 11 9.568 10.672C9.568 10.44 9.492 10.256 9.34 10.12C9.188 9.976 8.952 9.848 8.632 9.736C8.32 9.616 7.904 9.492 7.384 9.364C6.784 9.22 6.28 9.048 5.872 8.848C5.472 8.64 5.168 8.38 4.96 8.068C4.76 7.756 4.66 7.36 4.66 6.88C4.66 6.416 4.784 6.004 5.032 5.644C5.288 5.284 5.648 5 6.112 4.792C6.584 4.584 7.144 4.48 7.792 4.48C8.312 4.48 8.772 4.552 9.172 4.696C9.572 4.832 9.904 5.016 10.168 5.248C10.432 5.472 10.632 5.716 10.768 5.98C10.912 6.236 10.988 6.488 10.996 6.736C10.996 6.8 10.972 6.86 10.924 6.916C10.884 6.964 10.824 6.988 10.744 6.988H9.628C9.564 6.988 9.5 6.972 9.436 6.94C9.372 6.908 9.32 6.848 9.28 6.76C9.232 6.512 9.076 6.3 8.812 6.124C8.548 5.948 8.208 5.86 7.792 5.86C7.36 5.86 7.012 5.94 6.748 6.1C6.484 6.26 6.352 6.508 6.352 6.844C6.352 7.068 6.416 7.256 6.544 7.408C6.68 7.552 6.892 7.68 7.18 7.792C7.476 7.904 7.864 8.024 8.344 8.152C9.024 8.304 9.58 8.48 10.012 8.68C10.444 8.88 10.76 9.136 10.96 9.448C11.16 9.752 11.26 10.14 11.26 10.612C11.26 11.14 11.116 11.592 10.828 11.968C10.548 12.336 10.152 12.62 9.64 12.82C9.128 13.02 8.532 13.12 7.852 13.12ZM15.8632 13.12C15.1512 13.12 14.5392 13.004 14.0272 12.772C13.5152 12.532 13.1152 12.168 12.8272 11.68C12.5392 11.184 12.3832 10.568 12.3592 9.832C12.3512 9.488 12.3472 9.148 12.3472 8.812C12.3472 8.476 12.3512 8.132 12.3592 7.78C12.3832 7.052 12.5432 6.444 12.8392 5.956C13.1352 5.468 13.5392 5.1 14.0512 4.852C14.5712 4.604 15.1752 4.48 15.8632 4.48C16.5512 4.48 17.1552 4.604 17.6752 4.852C18.1952 5.1 18.6032 5.468 18.8992 5.956C19.1952 6.444 19.3552 7.052 19.3792 7.78C19.3952 8.132 19.4032 8.476 19.4032 8.812C19.4032 9.148 19.3952 9.488 19.3792 9.832C19.3552 10.568 19.1992 11.184 18.9112 11.68C18.6232 12.168 18.2192 12.532 17.6992 12.772C17.1872 13.004 16.5752 13.12 15.8632 13.12ZM15.8632 11.74C16.3832 11.74 16.8072 11.588 17.1352 11.284C17.4632 10.972 17.6392 10.468 17.6632 9.772C17.6792 9.42 17.6872 9.096 17.6872 8.8C17.6872 8.496 17.6792 8.172 17.6632 7.828C17.6472 7.364 17.5592 6.988 17.3992 6.7C17.2472 6.404 17.0392 6.192 16.7752 6.064C16.5112 5.928 16.2072 5.86 15.8632 5.86C15.5272 5.86 15.2272 5.928 14.9632 6.064C14.6992 6.192 14.4872 6.404 14.3272 6.7C14.1752 6.988 14.0912 7.364 14.0752 7.828C14.0672 8.172 14.0632 8.496 14.0632 8.8C14.0632 9.096 14.0672 9.42 14.0752 9.772C14.0992 10.468 14.2752 10.972 14.6032 11.284C14.9312 11.588 15.3512 11.74 15.8632 11.74ZM24.207 13.12C23.495 13.12 22.883 13.004 22.371 12.772C21.859 12.532 21.459 12.168 21.171 11.68C20.883 11.184 20.727 10.568 20.703 9.832C20.695 9.488 20.691 9.148 20.691 8.812C20.691 8.476 20.695 8.132 20.703 7.78C20.727 7.052 20.887 6.444 21.183 5.956C21.479 5.468 21.883 5.1 22.395 4.852C22.915 4.604 23.519 4.48 24.207 4.48C24.895 4.48 25.499 4.604 26.019 4.852C26.539 5.1 26.947 5.468 27.243 5.956C27.539 6.444 27.699 7.052 27.723 7.78C27.739 8.132 27.747 8.476 27.747 8.812C27.747 9.148 27.739 9.488 27.723 9.832C27.699 10.568 27.543 11.184 27.255 11.68C26.967 12.168 26.563 12.532 26.043 12.772C25.531 13.004 24.919 13.12 24.207 13.12ZM24.207 11.74C24.727 11.74 25.151 11.588 25.479 11.284C25.807 10.972 25.983 10.468 26.007 9.772C26.023 9.42 26.031 9.096 26.031 8.8C26.031 8.496 26.023 8.172 26.007 7.828C25.991 7.364 25.903 6.988 25.743 6.7C25.591 6.404 25.383 6.192 25.119 6.064C24.855 5.928 24.551 5.86 24.207 5.86C23.871 5.86 23.571 5.928 23.307 6.064C23.043 6.192 22.831 6.404 22.671 6.7C22.519 6.988 22.435 7.364 22.419 7.828C22.411 8.172 22.407 8.496 22.407 8.8C22.407 9.096 22.411 9.42 22.419 9.772C22.443 10.468 22.619 10.972 22.947 11.284C23.275 11.588 23.695 11.74 24.207 11.74ZM29.6107 13C29.5307 13 29.4627 12.972 29.4067 12.916C29.3507 12.86 29.3227 12.792 29.3227 12.712V4.9C29.3227 4.812 29.3507 4.74 29.4067 4.684C29.4627 4.628 29.5307 4.6 29.6107 4.6H30.5347C30.6467 4.6 30.7267 4.628 30.7747 4.684C30.8307 4.732 30.8667 4.768 30.8827 4.792L34.3387 10.168V4.9C34.3387 4.812 34.3627 4.74 34.4107 4.684C34.4667 4.628 34.5387 4.6 34.6267 4.6H35.6347C35.7227 4.6 35.7947 4.628 35.8507 4.684C35.9067 4.74 35.9347 4.812 35.9347 4.9V12.7C35.9347 12.788 35.9067 12.86 35.8507 12.916C35.7947 12.972 35.7267 13 35.6467 13H34.7107C34.5987 13 34.5187 12.972 34.4707 12.916C34.4227 12.86 34.3867 12.824 34.3627 12.808L30.9187 7.552V12.712C30.9187 12.792 30.8907 12.86 30.8347 12.916C30.7787 12.972 30.7067 13 30.6187 13H29.6107Z" fill="#FFE248"/>
<rect x="0.5" y="0.5" width="40" height="17" rx="3.5" stroke="#FFE248" stroke-opacity="0.4"/>
</svg>
