<svg width="36" height="36" viewBox="0 0 36 36" fill="none" xmlns="http://www.w3.org/2000/svg">
<path d="M18 36C27.9411 36 36 27.9411 36 18C36 8.05888 27.9411 0 18 0C8.05888 0 0 8.05888 0 18C0 27.9411 8.05888 36 18 36Z" fill="white"/>
<path d="M23.2886 10.6834L19.6372 16.1048C19.5852 16.1829 19.5632 16.2771 19.5753 16.3701C19.5875 16.4632 19.6329 16.5487 19.7031 16.6108C19.7734 16.6729 19.8638 16.7075 19.9576 16.7082C20.0514 16.7088 20.1423 16.6755 20.2134 16.6143L23.8079 13.4966C23.8289 13.4778 23.855 13.4655 23.883 13.4612C23.9109 13.4569 23.9395 13.4609 23.9652 13.4726C23.9909 13.4843 24.0127 13.5032 24.0278 13.5271C24.043 13.551 24.0508 13.5787 24.0505 13.607V23.3676C24.0505 23.3975 24.0413 23.4267 24.0241 23.4511C24.007 23.4756 23.9827 23.4942 23.9546 23.5044C23.9265 23.5146 23.896 23.5159 23.8671 23.5082C23.8383 23.5004 23.8125 23.484 23.7933 23.461L12.9287 10.4553C12.754 10.249 12.5364 10.0832 12.2911 9.96942C12.0457 9.85566 11.7786 9.7967 11.5082 9.79663H11.1285C10.6349 9.79663 10.1616 9.99269 9.81262 10.3417C9.46364 10.6907 9.26758 11.164 9.26758 11.6575V25.4044C9.26758 25.898 9.46364 26.3713 9.81262 26.7203C10.1616 27.0693 10.6349 27.2653 11.1285 27.2653C11.4467 27.2654 11.7596 27.184 12.0374 27.0287C12.3152 26.8735 12.5485 26.6496 12.7152 26.3786L16.3667 20.9572C16.4187 20.8791 16.4406 20.7849 16.4285 20.6918C16.4164 20.5988 16.371 20.5133 16.3007 20.4512C16.2304 20.389 16.14 20.3544 16.0462 20.3538C15.9524 20.3532 15.8616 20.3865 15.7904 20.4477L12.196 23.5654C12.1749 23.5842 12.1489 23.5965 12.1209 23.6008C12.093 23.6051 12.0644 23.6011 12.0387 23.5894C12.0129 23.5777 11.9912 23.5587 11.976 23.5349C11.9609 23.511 11.953 23.4832 11.9534 23.455V13.6919C11.9534 13.662 11.9626 13.6329 11.9798 13.6084C11.9969 13.5839 12.0212 13.5653 12.0493 13.5551C12.0774 13.5449 12.1079 13.5436 12.1368 13.5514C12.1656 13.5591 12.1914 13.5756 12.2106 13.5985L23.0739 26.6066C23.2487 26.813 23.4663 26.9788 23.7116 27.0926C23.9569 27.2063 24.2241 27.2653 24.4945 27.2653H24.8742C25.1187 27.2655 25.3608 27.2175 25.5867 27.124C25.8126 27.0306 26.0179 26.8935 26.1908 26.7207C26.3637 26.5479 26.5009 26.3427 26.5945 26.1169C26.6881 25.891 26.7363 25.6489 26.7363 25.4044V11.6575C26.7363 11.164 26.5402 10.6907 26.1912 10.3417C25.8423 9.99269 25.3689 9.79663 24.8754 9.79663C24.5572 9.79655 24.2442 9.87801 23.9665 10.0333C23.6887 10.1885 23.4553 10.4123 23.2886 10.6834Z" fill="#151922"/>
</svg>
