<svg width="18" height="18" viewBox="0 0 18 18" fill="none" xmlns="http://www.w3.org/2000/svg">
<path fill-rule="evenodd" clip-rule="evenodd" d="M11.3854 12.4456C8.73512 14.5682 4.85569 14.4011 2.3989 11.9444C-0.237135 9.30832 -0.237135 5.03445 2.3989 2.39842C5.03494 -0.237623 9.30881 -0.237623 11.9448 2.39842C14.4016 4.8552 14.5687 8.73462 12.446 11.3849L17.6017 16.5405C17.8946 16.8334 17.8946 17.3083 17.6017 17.6012C17.3088 17.8941 16.8339 17.8941 16.541 17.6012L11.3854 12.4456ZM3.45956 10.8837C1.40931 8.83344 1.40931 5.50933 3.45956 3.45908C5.50982 1.40882 8.83393 1.40882 10.8842 3.45908C12.9329 5.50782 12.9344 8.82856 10.8887 10.8792C10.8872 10.8807 10.8857 10.8822 10.8842 10.8837C10.8827 10.8852 10.8812 10.8867 10.8797 10.8882C8.82906 12.9339 5.50831 12.9324 3.45956 10.8837Z" fill="#8991A3"/>
</svg>
