<svg width="21" height="18" viewBox="0 0 21 18" fill="none" xmlns="http://www.w3.org/2000/svg">
<path d="M13.4995 9.00012C13.4995 8.17169 14.171 7.50012 14.9995 7.50012C15.8279 7.50012 16.4995 8.17169 16.4995 9.00012C16.4995 9.82855 15.8279 10.5001 14.9995 10.5001C14.171 10.5001 13.4995 9.82855 13.4995 9.00012Z" fill="white"/>
<path fill-rule="evenodd" clip-rule="evenodd" d="M18.4408 3.67414C17.783 2.12848 16.3296 1.01735 14.6001 0.835354L13.9483 0.766758C10.6559 0.420305 7.3352 0.443152 4.04796 0.834872L3.61602 0.886343C1.94722 1.0852 0.62497 2.38901 0.402693 4.05485C-0.0352727 7.33716 -0.0352728 10.6631 0.402693 13.9454C0.62497 15.6113 1.94722 16.9151 3.61602 17.1139L4.04796 17.1654C7.3352 17.5571 10.6559 17.58 13.9483 17.2335L14.6001 17.1649C16.3296 16.9829 17.783 15.8718 18.4408 14.3261C19.4801 14.0167 20.2732 13.1157 20.4034 12.0025C20.6367 10.0077 20.6367 7.99255 20.4034 5.99776C20.2732 4.88454 19.4801 3.98356 18.4408 3.67414ZM13.7913 2.25852C10.6102 1.92377 7.40163 1.94585 4.22545 2.32433L3.79351 2.37581C2.80469 2.49364 2.02122 3.26618 1.88952 4.25324C1.46912 7.40388 1.46912 10.5964 1.88952 13.747C2.02122 14.7341 2.8047 15.5066 3.79351 15.6245L4.22545 15.6759C7.40164 16.0544 10.6102 16.0765 13.7913 15.7417L14.4431 15.6732C15.2937 15.5836 16.0463 15.1644 16.5678 14.5421C15.0596 14.63 13.5314 14.5907 12.0412 14.4242C10.7718 14.2823 9.74525 13.2828 9.59551 12.0025C9.36221 10.0077 9.36221 7.99255 9.59551 5.99776C9.74525 4.7175 10.7718 3.71796 12.0412 3.57609C13.5314 3.40954 15.0596 3.37024 16.5678 3.45819C16.0463 2.83587 15.2937 2.41662 14.4431 2.32712L13.7913 2.25852ZM17.2768 5.01483C17.2774 5.01867 17.278 5.02251 17.2786 5.02635L17.2847 5.06524L17.4833 5.03439C17.5861 5.04456 17.6887 5.05537 17.7911 5.06681C18.3785 5.13246 18.8463 5.59661 18.9136 6.17201C19.1334 8.05102 19.1334 9.94924 18.9136 11.8283C18.8463 12.4037 18.3785 12.8678 17.7911 12.9335C17.6887 12.9449 17.5861 12.9557 17.4833 12.9659L17.2847 12.935L17.2786 12.9739C17.278 12.9778 17.2774 12.9816 17.2768 12.9854C15.5982 13.1373 13.8766 13.12 12.2078 12.9335C11.6204 12.8678 11.1527 12.4037 11.0854 11.8283C10.8656 9.94925 10.8656 8.05102 11.0854 6.17201C11.1527 5.59661 11.6204 5.13246 12.2078 5.06681C13.8766 4.8803 15.5982 4.86297 17.2768 5.01483Z" fill="white"/>
</svg>
