<svg width="14" height="13" viewBox="0 0 14 13" fill="none" xmlns="http://www.w3.org/2000/svg">
<path d="M7.66687 4.49938C7.66687 4.86757 7.36839 5.16605 7.0002 5.16605C6.63201 5.16605 6.33354 4.86757 6.33354 4.49938C6.33354 4.13119 6.63201 3.83272 7.0002 3.83272C7.36839 3.83272 7.66687 4.13119 7.66687 4.49938Z" fill="white"/>
<path d="M7.0002 6.33272C7.27635 6.33272 7.5002 6.55657 7.5002 6.83272V10.166C7.5002 10.4422 7.27635 10.666 7.0002 10.666C6.72406 10.666 6.5002 10.4422 6.5002 10.166V6.83272C6.5002 6.55657 6.72406 6.33272 7.0002 6.33272Z" fill="white"/>
<path fill-rule="evenodd" clip-rule="evenodd" d="M8.51377 1.16114C7.78579 0.0960291 6.21459 0.0960248 5.48661 1.16114L5.19866 1.58243C3.39464 4.22191 1.84466 7.02633 0.569508 9.95811L0.509365 10.0964C0.0599949 11.1296 0.738904 12.3027 1.8586 12.4278C5.27569 12.8098 8.72469 12.8098 12.1418 12.4278C13.2615 12.3027 13.9404 11.1296 13.491 10.0964L13.4309 9.95811C12.1557 7.02632 10.6057 4.22191 8.80172 1.58244L8.51377 1.16114ZM6.3122 1.72541C6.6431 1.24127 7.35728 1.24127 7.68818 1.72541L7.97613 2.14671C9.74453 4.73406 11.2639 7.48308 12.5139 10.357L12.574 10.4952C12.7549 10.9113 12.4816 11.3836 12.0307 11.434C8.68744 11.8077 5.31294 11.8077 1.96967 11.434C1.51881 11.3836 1.24544 10.9113 1.42638 10.4952L1.48653 10.357C2.73649 7.48308 4.25586 4.73405 6.02425 2.14671L6.3122 1.72541Z" fill="white"/>
</svg>
