<svg width="48" height="48" viewBox="0 0 48 48" fill="none" xmlns="http://www.w3.org/2000/svg">
<path d="M0.499908 24C0.499908 18.329 0.50097 14.1261 0.93479 10.8994C1.36668 7.68704 2.21921 5.51725 3.86818 3.86827C5.51716 2.2193 7.68695 1.36677 10.8993 0.934881C14.126 0.501062 18.3289 0.5 23.9999 0.5C29.6709 0.5 33.8738 0.501062 37.1005 0.934881C40.3129 1.36677 42.4827 2.2193 44.1316 3.86827C45.7806 5.51725 46.6331 7.68704 47.065 10.8994C47.4988 14.1261 47.4999 18.329 47.4999 24C47.4999 29.671 47.4988 33.8739 47.065 37.1006C46.6331 40.313 45.7806 42.4828 44.1316 44.1317C42.4827 45.7807 40.3129 46.6332 37.1005 47.0651C33.8738 47.4989 29.6709 47.5 23.9999 47.5C18.3289 47.5 14.126 47.4989 10.8993 47.0651C7.68695 46.6332 5.51716 45.7807 3.86818 44.1317C2.21921 42.4828 1.36668 40.313 0.93479 37.1006C0.50097 33.8739 0.499908 29.671 0.499908 24Z" fill="#202632" stroke="white"/>
<path d="M31.2632 13.2183L26.2466 20.6667C26.1751 20.7739 26.1449 20.9034 26.1616 21.0312C26.1782 21.1591 26.2406 21.2765 26.3372 21.3619C26.4337 21.4473 26.5579 21.4948 26.6868 21.4957C26.8157 21.4965 26.9405 21.4507 27.0382 21.3667L31.9766 17.0833C32.0055 17.0574 32.0414 17.0405 32.0798 17.0347C32.1181 17.0288 32.1574 17.0343 32.1928 17.0503C32.2281 17.0664 32.258 17.0925 32.2788 17.1252C32.2996 17.158 32.3104 17.1962 32.3099 17.235V30.645C32.3099 30.6861 32.2972 30.7261 32.2737 30.7597C32.2501 30.7933 32.2168 30.8189 32.1782 30.8329C32.1396 30.8469 32.0976 30.8487 32.058 30.8381C32.0183 30.8274 31.9829 30.8048 31.9566 30.7733L17.0299 12.905C16.7898 12.6215 16.4909 12.3937 16.1538 12.2374C15.8168 12.0811 15.4498 12.0001 15.0782 12H14.5566C13.8785 12 13.2282 12.2694 12.7487 12.7488C12.2693 13.2283 11.9999 13.8786 11.9999 14.5567V33.4433C11.9999 34.1214 12.2693 34.7717 12.7487 35.2512C13.2282 35.7306 13.8785 36 14.5566 36C14.9938 36.0001 15.4237 35.8882 15.8053 35.6749C16.187 35.4616 16.5076 35.1541 16.7366 34.7817L21.7532 27.3333C21.8247 27.2261 21.8549 27.0966 21.8382 26.9688C21.8216 26.8409 21.7592 26.7235 21.6626 26.6381C21.5661 26.5527 21.4419 26.5052 21.313 26.5043C21.1841 26.5035 21.0593 26.5493 20.9616 26.6333L16.0232 30.9167C15.9943 30.9426 15.9584 30.9595 15.9201 30.9653C15.8817 30.9712 15.8424 30.9657 15.8071 30.9497C15.7717 30.9336 15.7418 30.9075 15.721 30.8748C15.7002 30.842 15.6894 30.8038 15.6899 30.765V17.3517C15.6899 17.3106 15.7026 17.2706 15.7261 17.2369C15.7497 17.2033 15.783 17.1778 15.8216 17.1638C15.8602 17.1497 15.9022 17.1479 15.9418 17.1586C15.9815 17.1693 16.0169 17.1919 16.0432 17.2233L30.9682 35.095C31.2083 35.3785 31.5073 35.6063 31.8443 35.7626C32.1814 35.9189 32.5484 35.9999 32.9199 36H33.4416C33.7775 36.0002 34.1101 35.9343 34.4205 35.8059C34.7309 35.6775 35.0129 35.4892 35.2505 35.2518C35.4881 35.0143 35.6765 34.7324 35.8051 34.4221C35.9337 34.1118 35.9999 33.7792 35.9999 33.4433V14.5567C35.9999 13.8786 35.7305 13.2283 35.2511 12.7488C34.7716 12.2694 34.1213 12 33.4432 12C33.0061 11.9999 32.5761 12.1118 32.1945 12.3251C31.8128 12.5384 31.4922 12.8459 31.2632 13.2183Z" fill="white"/>
</svg>
