<svg width="36" height="36" viewBox="0 0 36 36" fill="none" xmlns="http://www.w3.org/2000/svg">
<path d="M0.375 17.9998C0.375 13.7465 0.375797 10.5943 0.701161 8.17428C1.02508 5.76504 1.66447 4.13769 2.9012 2.90096C4.13794 1.66423 5.76528 1.02483 8.17452 0.700917C10.5946 0.375552 13.7468 0.374756 18 0.374756C22.2533 0.374756 25.4055 0.375552 27.8255 0.700917C30.2347 1.02483 31.8621 1.66423 33.0988 2.90096C34.3355 4.13769 34.9749 5.76504 35.2989 8.17428C35.6242 10.5943 35.625 13.7465 35.625 17.9998C35.625 22.253 35.6242 25.4052 35.2989 27.8252C34.9749 30.2345 34.3355 31.8618 33.0988 33.0986C31.8621 34.3353 30.2347 34.9747 27.8255 35.2986C25.4055 35.624 22.2533 35.6248 18 35.6248C13.7468 35.6248 10.5946 35.624 8.17452 35.2986C5.76528 34.9747 4.13794 34.3353 2.9012 33.0986C1.66447 31.8618 1.02508 30.2345 0.701161 27.8252C0.375797 25.4052 0.375 22.253 0.375 17.9998Z" stroke="white" stroke-width="0.75"/>
<path d="M23.4475 9.91351L19.685 15.4998C19.6314 15.5802 19.6088 15.6773 19.6213 15.7732C19.6338 15.869 19.6805 15.9571 19.753 16.0212C19.8254 16.0852 19.9185 16.1208 20.0152 16.1215C20.1118 16.1222 20.2055 16.0878 20.2788 16.0248L23.9825 12.8123C24.0042 12.7928 24.0311 12.7802 24.0599 12.7758C24.0887 12.7714 24.1181 12.7755 24.1446 12.7875C24.1711 12.7996 24.1936 12.8191 24.2092 12.8437C24.2248 12.8683 24.2329 12.8969 24.2325 12.926V22.9835C24.2325 23.0143 24.223 23.0443 24.2053 23.0696C24.1877 23.0948 24.1627 23.1139 24.1337 23.1244C24.1048 23.135 24.0733 23.1363 24.0436 23.1283C24.0138 23.1203 23.9873 23.1034 23.9675 23.0798L12.7725 9.67851C12.5924 9.46587 12.3682 9.29501 12.1154 9.1778C11.8627 9.06058 11.5874 8.99983 11.3088 8.99976H10.9175C10.4089 8.99976 9.92122 9.20178 9.56162 9.56138C9.20202 9.92098 9 10.4087 9 10.9173V25.0823C9 25.5908 9.20202 26.0785 9.56162 26.4381C9.92122 26.7977 10.4089 26.9998 10.9175 26.9998C11.2454 26.9998 11.5678 26.9159 11.8541 26.7559C12.1403 26.596 12.3808 26.3653 12.5525 26.086L16.315 20.4998C16.3686 20.4193 16.3912 20.3222 16.3787 20.2263C16.3663 20.1305 16.3195 20.0424 16.2471 19.9784C16.1746 19.9143 16.0815 19.8787 15.9848 19.878C15.8882 19.8774 15.7945 19.9117 15.7213 19.9748L12.0175 23.1873C11.9958 23.2067 11.9689 23.2194 11.9401 23.2238C11.9113 23.2281 11.8819 23.2241 11.8554 23.212C11.8289 23.1999 11.8064 23.1804 11.7908 23.1558C11.7752 23.1312 11.7671 23.1026 11.7675 23.0735V13.0135C11.7675 12.9827 11.777 12.9527 11.7947 12.9275C11.8123 12.9023 11.8374 12.8831 11.8663 12.8726C11.8952 12.8621 11.9267 12.8607 11.9564 12.8687C11.9862 12.8767 12.0127 12.8937 12.0325 12.9173L23.2263 26.321C23.4063 26.5336 23.6305 26.7045 23.8833 26.8217C24.1361 26.9389 24.4114 26.9997 24.69 26.9998H25.0813C25.3332 26.9999 25.5826 26.9505 25.8154 26.8542C26.0482 26.7579 26.2598 26.6167 26.4379 26.4386C26.6161 26.2605 26.7575 26.0491 26.8539 25.8163C26.9504 25.5836 27 25.3342 27 25.0823V10.9173C27 10.4087 26.798 9.92098 26.4384 9.56138C26.0788 9.20178 25.5911 8.99976 25.0825 8.99976C24.7546 8.99967 24.4322 9.08361 24.1459 9.24358C23.8597 9.40354 23.6192 9.63419 23.4475 9.91351Z" fill="white"/>
</svg>
