<svg width="400" height="400" viewBox="0 0 400 400" fill="none" xmlns="http://www.w3.org/2000/svg">
<g clip-path="url(#clip0_153:940)">
<rect width="400" height="400" rx="200" fill="#FE2C55"/>
<path fill-rule="evenodd" clip-rule="evenodd" d="M230.099 113.11C249 132.098 249 162.595 249 223.589V296.778C249 305.737 241.737 313 232.778 313C223.818 313 216.556 305.737 216.556 296.778V264.982C216.556 256.023 209.293 248.76 200.333 248.76C191.374 248.76 184.111 256.023 184.111 264.982V296.778C184.111 305.737 176.767 313 167.807 313C158.938 313 151.667 305.81 151.667 296.94C151.667 288.07 144.476 280.88 135.607 280.88H135.282C126.413 280.88 119.222 288.07 119.222 296.94C119.222 305.81 112.032 313 103.162 313H102.838C93.9681 313 86.7778 305.81 86.7778 296.94C86.7778 288.07 79.5875 280.88 70.7178 280.88L70.3933 280.88C61.5236 280.88 54.3333 288.07 54.3333 296.94C54.3333 305.81 47.143 313 38.2733 313H37.9489C29.0792 313 21.8889 305.81 21.8889 296.94C21.8889 288.07 14.6986 280.88 5.82888 280.88H5.50443C-3.36526 280.88 -10.5556 288.07 -10.5556 296.94C-10.5556 305.81 -17.8266 313 -26.6963 313C-35.6555 313 -43 305.737 -43 296.778V223.589C-43 162.595 -43 132.098 -24.0993 113.111C-24.0295 113.04 -23.9596 112.971 -23.8895 112.901C-4.90214 94 25.5949 94 86.5889 94H119.411C180.405 94 210.902 94 229.889 112.901C229.96 112.971 230.029 113.04 230.099 113.11ZM200.333 216.964C209.293 216.964 216.555 209.701 216.555 200.742C216.555 191.783 209.293 184.52 200.333 184.52C191.374 184.52 184.111 191.783 184.111 200.742C184.111 209.701 191.374 216.964 200.333 216.964Z" fill="white"/>
</g>
<defs>
<clipPath id="clip0_153:940">
<rect width="400" height="400" rx="200" fill="white"/>
</clipPath>
</defs>
</svg>
